<svg width="754" height="389" viewBox="0 0 754 389" fill="none" xmlns="http://www.w3.org/2000/svg">
<mask id="path-1-inside-1_539_32921" fill="white">
<path d="M753.044 198.908L753.874 202.807L753.331 204.748L751.106 208.645L750.548 210.875V213.934L750.82 215.601L750.279 216.718L747.768 218.1L745.002 218.944L744.446 218.1L744.16 216.159L742.775 214.49L740.822 214.205L738.056 214.76L735.829 215.872L734.147 217.261L732.493 219.487L730.539 221.715L723.88 227.286L722.764 228.116L721.383 228.401L720.539 228.957L719.43 230.9L718.872 231.741L716.104 232.57L715.262 233.413L714.709 234.8V236.467L714.166 237.025H713.322L707.22 238.697L705.538 239.81L701.099 245.098L698.874 247.037L693.599 250.377L691.646 252.323L689.989 254.551L688.878 257.333V260.391L689.434 261.778L690.817 263.734L691.088 265.121L691.374 266.518L691.659 269.018L692.214 270.118L692.484 272.076L690.817 276.245L691.374 278.745L694.439 283.759L715.549 310.193L719.171 313.808L719.998 314.908V317.421L720.28 318.805L721.396 319.646L722.495 320.477L723.608 321.32L724.164 322.702V323.817L722.777 327.432L722.223 328.275L720.552 328.819L719.443 328.275L718.601 327.432L716.662 326.873L715.549 327.158L713.052 327.991L711.67 328.275L710.272 327.719L709.173 326.602L708.331 325.504L707.22 324.389L689.162 316.59L686.382 314.093L686.11 312.152L687.493 309.65L688.607 307.152L687.764 306.035L683.599 302.408L681.932 300.741L679.436 296.293L677.495 294.626L675.27 292.953L670.82 290.999L668.324 290.442L666.099 290.171L664.43 290.727L662.474 292.953L661.094 293.785H659.422L658.598 293.513L657.753 292.668L656.358 292.109L653.034 291.268L651.652 292.381L650.538 294.896L647.757 297.954L645.817 299.065L643.036 299.897L640.256 300.182L638.315 299.337L629.7 299.065L594.97 304.625L586.068 308.52L578.297 313.808L573.292 320.477L568.57 329.103L565.514 333.272L562.178 336.613L558.568 338.287L551.069 339.671L547.461 340.784L541.898 347.455L538.561 353.025L537.446 354.695L535.507 355.253L529.675 356.096L527.734 356.64L526.063 358.594L524.954 361.65L523.284 364.721L521.059 365.549H518.563L515.498 364.993L509.946 366.393L506.61 371.118L503.545 376.963L499.664 381.418L497.439 382.801L487.443 386.144L482.707 388.374L480.225 388.93H478.543L478.272 384.474L476.047 378.36L475.761 377.519L475.489 375.845L475.761 373.348L476.872 369.164L476.59 368.334L475.761 366.936L473.264 364.993L472.422 363.893L472.14 362.209V359.724L472.694 358.609L473.536 358.05L474.365 357.494L474.919 356.653L475.761 355.551L476.047 354.436L476.59 353.053L476.872 347.767L476.59 345.813L475.761 343.868L473.536 341.929L472.14 341.084L471.039 340.812L469.644 339.701L469.372 335.8L470.469 334.413L471.025 334.128L472.422 333.857H474.365L477.415 334.4L479.086 334.128L480.195 333.57L486.032 329.403L492.707 324.389L494.374 323.56L496.599 322.448L499.095 321.889L501.591 320.774L504.656 318.277L506.599 315.777L507.98 313.275L508.537 311.321L509.095 308.55L509.933 306.878L510.476 305.763L511.591 304.924L512.972 304.094L515.755 302.694L517.422 302.423L519.091 302.694L521.316 303.809L524.096 306.035L527.437 307.978L530.215 308.537L550.5 300.751H552.167L556.33 301.31L557.175 301.023L558.555 300.741H560.767L564.106 302.136L564.663 301.851L565.501 301.295L565.773 300.469L566.331 299.065L567.171 298.241L567.726 297.682L570.222 297.126L570.78 296.839L571.323 296.567L571.892 295.452L572.447 293.785L572.99 292.942L573.548 292.381L574.106 291.838L576.613 290.727L577.156 290.442L577.44 289.884L577.711 289.056L577.998 288.212V284.33L577.711 283.215L577.156 281.828L574.672 278.757L573.834 278.199L572.447 277.927H570.494L569.385 278.199L568.827 278.486L568.284 278.757L567.726 279.316L563.563 284.33L562.721 285.169L561.881 284.882L561.609 283.772L562.167 281.27V279.603L561.881 278.486L561.052 277.927L560.767 277.103V276.26L562.992 271.53L562.439 269.033L561.881 263.192L560.78 261.517L559.942 260.676L556.602 259.008L555.493 258.176L554.105 256.778L553.55 256.222L552.167 255.394L551.054 254.561L550.229 253.448L549.942 252.336L548.829 244.265L548.275 242.878L547.446 241.211L548.829 237.871L552.167 233.141L563.563 220.617L568.555 213.103L570.222 209.217L572.176 206.148L573.005 204.491V203.635L571.907 203.094L539.658 203.366L533.825 205.033L522.998 211.716L520.502 213.662L517.165 215.601L510.491 217.831L499.381 219.785L496.054 220.059L494.117 219.502L492.164 219.23L490.779 218.387L487.171 216.444H486.058L484.66 217.005L478.556 220.617L439.66 233.969L420.207 243.422L410.205 245.367L402.419 247.88L395.191 250.936L388.527 255.394L384.633 256.778L381.312 256.509L377.971 258.176L374.65 255.107L362.143 258.176L358.249 256.509L356.861 255.95L353.812 255.394L352.7 254.561L351.587 252.607L350.76 252.053L349.362 250.936L348.806 250.664H347.691L344.641 253.72L343.814 255.678L344.357 257.891L345.754 259.578L347.419 260.962L348.522 262.077L349.633 264.575L348.522 266.518L347.691 267.631L324.628 286.83L319.906 290.171L313.792 294.896L296.018 312.691L294.636 314.921L293.522 317.149V320.763L294.636 324.66L294.347 325.504L293.509 326.886L289.626 329.116L284.905 332.731L281.571 335.787L279.346 337.471L276.294 339.414L268.234 342.473L264.338 343.583L257.121 344.14L254.342 344.698L248.238 347.198L245.725 347.48L242.119 344.698L240.45 343.297L237.954 342.201L234.618 341.914L188.492 346.928L184.326 346.085L181.274 344.981L178.778 343.297L177.936 341.914L177.652 340.797V339.973L173.215 337.743L161.819 333.287L152.092 331.616L146.529 331.059L144.031 331.903L140.981 334.4L139.038 336.341L137.084 337.728L134.588 339.13L126.804 340.243L117.646 343.568L103.199 347.198L98.4645 349.141L96.8081 349.413L91.8027 349.698L89.3064 350.81L82.916 352.482L70.1225 351.367L65.9592 351.082L66.5149 348.869L64.29 341.069L62.063 336.613L55.6747 330.501L54.0056 325.775V323.261L54.2919 320.763L55.1169 318.548L55.959 316.306L58.4553 313.808L59.0131 312.691L59.5688 311.593L59.8531 308.807L60.3959 307.696L62.0779 305.466L66.2434 302.123L67.0705 299.897L66.5149 298.224L55.1319 278.199L52.3513 274.858L50.6821 275.417L47.0596 278.199L45.3925 278.757L40.3999 278.471L37.0615 279.031L26.7792 282.372L23.1694 282.644L22.3423 281.813V279.588L20.1046 276.803L17.0505 275.417L13.9985 274.858L10.9337 274.015L8.99096 271.789L7.87958 269.561L3.98767 266.788L2.88699 264.834L0.106445 254.551L0.948513 249.267L7.05249 241.196L7.89455 235.356L26.2214 234.8L31.5004 235.912L35.9501 238.684L37.8886 239.238L43.7361 238.966L49.2844 240.069L52.3513 239.797L57.0725 237.843L64.5742 230.616L69.5668 228.116L72.0631 227.829L82.9011 228.657H84.301L85.3974 228.116L86.2394 226.716L85.9552 225.614L85.3974 224.217V222.828L86.7824 220.602L87.8937 220.874L89.2936 223.102L91.5184 228.116L93.1855 230.616L95.1261 231.457L96.7932 229.227L98.4645 225.056L99.0202 225.327L99.8473 227.557L101.245 229.227H103.47L104.581 226.729L105.139 223.673L106.793 222.002L108.191 222.271L109.86 225.614L111.243 226.729L112.641 226.442L117.362 223.102L123.752 221.43L125.691 220.046L129.029 216.433L130.698 215.588L133.75 215.031L137.373 213.647L141.823 210.306L145.146 206.407L145.702 202.794H145.43L146.815 198.621V196.68L145.43 195.28L140.696 194.735L138.756 194.18L138.484 191.953L140.981 187.495L144.031 183.595L147.642 180.539L155.986 175.529L157.098 174.973L157.638 175.529L157.923 176.64L158.483 177.199L160.421 177.47L162.36 177.199L164.315 176.64L166.254 175.529L168.196 173.584L171.53 169.413L173.2 167.459L175.696 166.359L180.703 164.675L182.642 163.001L185.98 159.389L197.919 151.32L200.984 147.993L203.48 143.265L205.423 138.251L205.976 133.525L207.09 129.626L211.811 119.615L212.097 117.672L212.369 116.272L212.922 115.157L214.322 114.329L215.989 113.77H219.597L221.268 113.488L222.649 112.388L223.765 111.542L224.874 110.716L226.815 110.986L230.153 111.829H231.82L233.489 111.542L243.759 109.045L257.651 108.202L264.883 109.045H267.379L269.619 107.93L271.829 106.261L273.78 104.874L275.452 105.432L277.662 106.261L279.901 105.704L288.788 98.1924L291.013 97.0881L298.5 94.8623L299.613 94.0191L300.171 92.3499L301.28 92.0652H302.949L304.063 91.7934L304.621 90.6763L304.334 89.8502L303.777 89.0092L304.063 87.8941L305.446 86.7792L307.942 86.5074L310.723 86.2206L312.678 86.5074L314.888 85.3945L317.384 84.0077L319.624 82.6081L320.165 80.1084L319.338 77.6109L317.113 72.3249V69.8252L318.227 67.5995L320.451 67.041L325.444 68.156L328.227 68.4427L330.165 67.8842L334.344 64.5413L347.393 46.4617L353.5 43.3928L358.221 43.6753L359.616 43.121L361.004 41.7321L363.228 38.1046L364.609 36.7199L367.678 35.0485L371.012 34.7617H377.958L381.012 33.9378L382.966 33.0946L384.904 31.7078L391.85 21.9682L394.075 20.0271L398.241 19.7403L402.962 21.4096L407.683 24.4807L414.629 31.9903L416.014 34.2182L415.185 39.7782L417.125 40.8931H420.177L422.131 40.3346H427.123L432.131 41.7171L441.86 45.901L444.638 46.7335L443.798 45.3467L441.573 43.121L440.473 40.3346L442.697 41.7171L444.922 42.5603L452.426 44.2339L459.086 48.1288L461.582 48.9592L471.311 50.3481L472.422 50.9024L473.249 51.4588L474.094 52.5738V53.6888L474.365 54.8038L475.474 55.6278L482.978 56.471L487.986 58.4142L490.482 58.9706L495.485 59.5292L498.253 58.9706L500.749 58.4142L502.987 56.7449L504.917 54.5171L506.026 52.0153L506.87 46.7335L507.98 44.7881L512.972 45.6185L514.088 44.7881L514.37 41.4453L512.972 36.4374L513.259 34.7617L517.98 34.4899L518.266 33.3792L517.98 31.9796L518.266 30.8775L519.647 29.7646H520.762L521.872 29.4821L523.541 29.2103L528.262 27.2521L530.758 25.8675L532.983 22.7964H535.764L536.864 22.5268L538.26 21.4096L539.929 18.9121L541.03 17.7971L543.268 16.6821L547.431 16.1257L549.927 15.0128L556.873 10.2832L559.37 9.45713L564.377 9.72679L566.316 9.18533L573.264 6.11643L579.652 1.10215L581.877 0L584.657 0.271799L586.327 2.22999L587.998 5.00143L589.665 6.95534L591.332 8.62677L594.944 12.8L596.053 14.7389L597.994 21.9832L599.394 24.1939L603.271 28.3778L607.165 30.6078L611.332 30.3232L616.054 27.8214L618.548 25.8803L620.503 25.035L622.17 25.8803L624.109 28.3778L624.382 30.0514L621.057 34.7767L619.116 38.9457L617.721 40.0628L603.828 43.6753L601.619 44.7881L600.503 46.7335L599.107 48.6874L597.44 50.6306L595.497 51.7435L588.823 53.6888L591.332 55.0842L593.273 57.3035L596.053 63.4263L596.598 66.4845L593.544 71.2142V74.5549L597.154 77.8977L602.999 75.1113L612.728 64.5285L617.992 60.3574L638.287 55.0735L639.386 54.8038H639.942L639.67 55.9145L639.386 56.7449L638.83 57.8578L638.274 58.686L636.05 64.5285L635.22 66.4845L635.49 67.8713L636.334 68.9842H638.274L640.499 70.9274L641.613 73.7117L642.996 79.552L644.663 82.6252L651.609 90.1327L653.562 97.3598L650.226 101.261L635.22 107.93L634.949 109.603L635.49 111.829L634.949 114.9L633.265 117.672L630.499 119.902L627.721 121.297L624.667 120.456L623.825 124.085L619.933 126.024L617.436 128.524L620.503 133.54L619.945 137.425L616.054 140.496L610.775 143.276L607.449 146.047H609.945L611.615 147.164L613.286 148.547L615.224 149.105L619.116 148.277L620.217 148.547L621.328 149.105L622.728 151.335L623.553 152.179L626.049 153.561L627.449 153.003L629.388 148.547L631.055 146.334L632.996 144.665L635.49 143.822H641.055L643.28 142.707L647.445 139.924L650.226 138.82L652.451 138.268H657.73L659.955 138.538L668.839 144.393L673.56 149.949L678.568 152.179L688.564 151.62L693.285 153.018L698.004 155.519L702.184 156.345L706.352 155.519L711.073 152.731L716.906 150.231L721.911 151.348L730.524 158.575L731.911 159.134L733.023 158.862L734.136 159.404L735.519 162.744L736.63 164.142L743.861 169.413L748.853 171.93L749.411 175.814L745.803 184.154L744.961 188.896L746.626 192.509L753.044 198.908Z"/>
</mask>
<path d="M753.044 198.908L753.874 202.807L753.331 204.748L751.106 208.645L750.548 210.875V213.934L750.82 215.601L750.279 216.718L747.768 218.1L745.002 218.944L744.446 218.1L744.16 216.159L742.775 214.49L740.822 214.205L738.056 214.76L735.829 215.872L734.147 217.261L732.493 219.487L730.539 221.715L723.88 227.286L722.764 228.116L721.383 228.401L720.539 228.957L719.43 230.9L718.872 231.741L716.104 232.57L715.262 233.413L714.709 234.8V236.467L714.166 237.025H713.322L707.22 238.697L705.538 239.81L701.099 245.098L698.874 247.037L693.599 250.377L691.646 252.323L689.989 254.551L688.878 257.333V260.391L689.434 261.778L690.817 263.734L691.088 265.121L691.374 266.518L691.659 269.018L692.214 270.118L692.484 272.076L690.817 276.245L691.374 278.745L694.439 283.759L715.549 310.193L719.171 313.808L719.998 314.908V317.421L720.28 318.805L721.396 319.646L722.495 320.477L723.608 321.32L724.164 322.702V323.817L722.777 327.432L722.223 328.275L720.552 328.819L719.443 328.275L718.601 327.432L716.662 326.873L715.549 327.158L713.052 327.991L711.67 328.275L710.272 327.719L709.173 326.602L708.331 325.504L707.22 324.389L689.162 316.59L686.382 314.093L686.11 312.152L687.493 309.65L688.607 307.152L687.764 306.035L683.599 302.408L681.932 300.741L679.436 296.293L677.495 294.626L675.27 292.953L670.82 290.999L668.324 290.442L666.099 290.171L664.43 290.727L662.474 292.953L661.094 293.785H659.422L658.598 293.513L657.753 292.668L656.358 292.109L653.034 291.268L651.652 292.381L650.538 294.896L647.757 297.954L645.817 299.065L643.036 299.897L640.256 300.182L638.315 299.337L629.7 299.065L594.97 304.625L586.068 308.52L578.297 313.808L573.292 320.477L568.57 329.103L565.514 333.272L562.178 336.613L558.568 338.287L551.069 339.671L547.461 340.784L541.898 347.455L538.561 353.025L537.446 354.695L535.507 355.253L529.675 356.096L527.734 356.64L526.063 358.594L524.954 361.65L523.284 364.721L521.059 365.549H518.563L515.498 364.993L509.946 366.393L506.61 371.118L503.545 376.963L499.664 381.418L497.439 382.801L487.443 386.144L482.707 388.374L480.225 388.93H478.543L478.272 384.474L476.047 378.36L475.761 377.519L475.489 375.845L475.761 373.348L476.872 369.164L476.59 368.334L475.761 366.936L473.264 364.993L472.422 363.893L472.14 362.209V359.724L472.694 358.609L473.536 358.05L474.365 357.494L474.919 356.653L475.761 355.551L476.047 354.436L476.59 353.053L476.872 347.767L476.59 345.813L475.761 343.868L473.536 341.929L472.14 341.084L471.039 340.812L469.644 339.701L469.372 335.8L470.469 334.413L471.025 334.128L472.422 333.857H474.365L477.415 334.4L479.086 334.128L480.195 333.57L486.032 329.403L492.707 324.389L494.374 323.56L496.599 322.448L499.095 321.889L501.591 320.774L504.656 318.277L506.599 315.777L507.98 313.275L508.537 311.321L509.095 308.55L509.933 306.878L510.476 305.763L511.591 304.924L512.972 304.094L515.755 302.694L517.422 302.423L519.091 302.694L521.316 303.809L524.096 306.035L527.437 307.978L530.215 308.537L550.5 300.751H552.167L556.33 301.31L557.175 301.023L558.555 300.741H560.767L564.106 302.136L564.663 301.851L565.501 301.295L565.773 300.469L566.331 299.065L567.171 298.241L567.726 297.682L570.222 297.126L570.78 296.839L571.323 296.567L571.892 295.452L572.447 293.785L572.99 292.942L573.548 292.381L574.106 291.838L576.613 290.727L577.156 290.442L577.44 289.884L577.711 289.056L577.998 288.212V284.33L577.711 283.215L577.156 281.828L574.672 278.757L573.834 278.199L572.447 277.927H570.494L569.385 278.199L568.827 278.486L568.284 278.757L567.726 279.316L563.563 284.33L562.721 285.169L561.881 284.882L561.609 283.772L562.167 281.27V279.603L561.881 278.486L561.052 277.927L560.767 277.103V276.26L562.992 271.53L562.439 269.033L561.881 263.192L560.78 261.517L559.942 260.676L556.602 259.008L555.493 258.176L554.105 256.778L553.55 256.222L552.167 255.394L551.054 254.561L550.229 253.448L549.942 252.336L548.829 244.265L548.275 242.878L547.446 241.211L548.829 237.871L552.167 233.141L563.563 220.617L568.555 213.103L570.222 209.217L572.176 206.148L573.005 204.491V203.635L571.907 203.094L539.658 203.366L533.825 205.033L522.998 211.716L520.502 213.662L517.165 215.601L510.491 217.831L499.381 219.785L496.054 220.059L494.117 219.502L492.164 219.23L490.779 218.387L487.171 216.444H486.058L484.66 217.005L478.556 220.617L439.66 233.969L420.207 243.422L410.205 245.367L402.419 247.88L395.191 250.936L388.527 255.394L384.633 256.778L381.312 256.509L377.971 258.176L374.65 255.107L362.143 258.176L358.249 256.509L356.861 255.95L353.812 255.394L352.7 254.561L351.587 252.607L350.76 252.053L349.362 250.936L348.806 250.664H347.691L344.641 253.72L343.814 255.678L344.357 257.891L345.754 259.578L347.419 260.962L348.522 262.077L349.633 264.575L348.522 266.518L347.691 267.631L324.628 286.83L319.906 290.171L313.792 294.896L296.018 312.691L294.636 314.921L293.522 317.149V320.763L294.636 324.66L294.347 325.504L293.509 326.886L289.626 329.116L284.905 332.731L281.571 335.787L279.346 337.471L276.294 339.414L268.234 342.473L264.338 343.583L257.121 344.14L254.342 344.698L248.238 347.198L245.725 347.48L242.119 344.698L240.45 343.297L237.954 342.201L234.618 341.914L188.492 346.928L184.326 346.085L181.274 344.981L178.778 343.297L177.936 341.914L177.652 340.797V339.973L173.215 337.743L161.819 333.287L152.092 331.616L146.529 331.059L144.031 331.903L140.981 334.4L139.038 336.341L137.084 337.728L134.588 339.13L126.804 340.243L117.646 343.568L103.199 347.198L98.4645 349.141L96.8081 349.413L91.8027 349.698L89.3064 350.81L82.916 352.482L70.1225 351.367L65.9592 351.082L66.5149 348.869L64.29 341.069L62.063 336.613L55.6747 330.501L54.0056 325.775V323.261L54.2919 320.763L55.1169 318.548L55.959 316.306L58.4553 313.808L59.0131 312.691L59.5688 311.593L59.8531 308.807L60.3959 307.696L62.0779 305.466L66.2434 302.123L67.0705 299.897L66.5149 298.224L55.1319 278.199L52.3513 274.858L50.6821 275.417L47.0596 278.199L45.3925 278.757L40.3999 278.471L37.0615 279.031L26.7792 282.372L23.1694 282.644L22.3423 281.813V279.588L20.1046 276.803L17.0505 275.417L13.9985 274.858L10.9337 274.015L8.99096 271.789L7.87958 269.561L3.98767 266.788L2.88699 264.834L0.106445 254.551L0.948513 249.267L7.05249 241.196L7.89455 235.356L26.2214 234.8L31.5004 235.912L35.9501 238.684L37.8886 239.238L43.7361 238.966L49.2844 240.069L52.3513 239.797L57.0725 237.843L64.5742 230.616L69.5668 228.116L72.0631 227.829L82.9011 228.657H84.301L85.3974 228.116L86.2394 226.716L85.9552 225.614L85.3974 224.217V222.828L86.7824 220.602L87.8937 220.874L89.2936 223.102L91.5184 228.116L93.1855 230.616L95.1261 231.457L96.7932 229.227L98.4645 225.056L99.0202 225.327L99.8473 227.557L101.245 229.227H103.47L104.581 226.729L105.139 223.673L106.793 222.002L108.191 222.271L109.86 225.614L111.243 226.729L112.641 226.442L117.362 223.102L123.752 221.43L125.691 220.046L129.029 216.433L130.698 215.588L133.75 215.031L137.373 213.647L141.823 210.306L145.146 206.407L145.702 202.794H145.43L146.815 198.621V196.68L145.43 195.28L140.696 194.735L138.756 194.18L138.484 191.953L140.981 187.495L144.031 183.595L147.642 180.539L155.986 175.529L157.098 174.973L157.638 175.529L157.923 176.64L158.483 177.199L160.421 177.47L162.36 177.199L164.315 176.64L166.254 175.529L168.196 173.584L171.53 169.413L173.2 167.459L175.696 166.359L180.703 164.675L182.642 163.001L185.98 159.389L197.919 151.32L200.984 147.993L203.48 143.265L205.423 138.251L205.976 133.525L207.09 129.626L211.811 119.615L212.097 117.672L212.369 116.272L212.922 115.157L214.322 114.329L215.989 113.77H219.597L221.268 113.488L222.649 112.388L223.765 111.542L224.874 110.716L226.815 110.986L230.153 111.829H231.82L233.489 111.542L243.759 109.045L257.651 108.202L264.883 109.045H267.379L269.619 107.93L271.829 106.261L273.78 104.874L275.452 105.432L277.662 106.261L279.901 105.704L288.788 98.1924L291.013 97.0881L298.5 94.8623L299.613 94.0191L300.171 92.3499L301.28 92.0652H302.949L304.063 91.7934L304.621 90.6763L304.334 89.8502L303.777 89.0092L304.063 87.8941L305.446 86.7792L307.942 86.5074L310.723 86.2206L312.678 86.5074L314.888 85.3945L317.384 84.0077L319.624 82.6081L320.165 80.1084L319.338 77.6109L317.113 72.3249V69.8252L318.227 67.5995L320.451 67.041L325.444 68.156L328.227 68.4427L330.165 67.8842L334.344 64.5413L347.393 46.4617L353.5 43.3928L358.221 43.6753L359.616 43.121L361.004 41.7321L363.228 38.1046L364.609 36.7199L367.678 35.0485L371.012 34.7617H377.958L381.012 33.9378L382.966 33.0946L384.904 31.7078L391.85 21.9682L394.075 20.0271L398.241 19.7403L402.962 21.4096L407.683 24.4807L414.629 31.9903L416.014 34.2182L415.185 39.7782L417.125 40.8931H420.177L422.131 40.3346H427.123L432.131 41.7171L441.86 45.901L444.638 46.7335L443.798 45.3467L441.573 43.121L440.473 40.3346L442.697 41.7171L444.922 42.5603L452.426 44.2339L459.086 48.1288L461.582 48.9592L471.311 50.3481L472.422 50.9024L473.249 51.4588L474.094 52.5738V53.6888L474.365 54.8038L475.474 55.6278L482.978 56.471L487.986 58.4142L490.482 58.9706L495.485 59.5292L498.253 58.9706L500.749 58.4142L502.987 56.7449L504.917 54.5171L506.026 52.0153L506.87 46.7335L507.98 44.7881L512.972 45.6185L514.088 44.7881L514.37 41.4453L512.972 36.4374L513.259 34.7617L517.98 34.4899L518.266 33.3792L517.98 31.9796L518.266 30.8775L519.647 29.7646H520.762L521.872 29.4821L523.541 29.2103L528.262 27.2521L530.758 25.8675L532.983 22.7964H535.764L536.864 22.5268L538.26 21.4096L539.929 18.9121L541.03 17.7971L543.268 16.6821L547.431 16.1257L549.927 15.0128L556.873 10.2832L559.37 9.45713L564.377 9.72679L566.316 9.18533L573.264 6.11643L579.652 1.10215L581.877 0L584.657 0.271799L586.327 2.22999L587.998 5.00143L589.665 6.95534L591.332 8.62677L594.944 12.8L596.053 14.7389L597.994 21.9832L599.394 24.1939L603.271 28.3778L607.165 30.6078L611.332 30.3232L616.054 27.8214L618.548 25.8803L620.503 25.035L622.17 25.8803L624.109 28.3778L624.382 30.0514L621.057 34.7767L619.116 38.9457L617.721 40.0628L603.828 43.6753L601.619 44.7881L600.503 46.7335L599.107 48.6874L597.44 50.6306L595.497 51.7435L588.823 53.6888L591.332 55.0842L593.273 57.3035L596.053 63.4263L596.598 66.4845L593.544 71.2142V74.5549L597.154 77.8977L602.999 75.1113L612.728 64.5285L617.992 60.3574L638.287 55.0735L639.386 54.8038H639.942L639.67 55.9145L639.386 56.7449L638.83 57.8578L638.274 58.686L636.05 64.5285L635.22 66.4845L635.49 67.8713L636.334 68.9842H638.274L640.499 70.9274L641.613 73.7117L642.996 79.552L644.663 82.6252L651.609 90.1327L653.562 97.3598L650.226 101.261L635.22 107.93L634.949 109.603L635.49 111.829L634.949 114.9L633.265 117.672L630.499 119.902L627.721 121.297L624.667 120.456L623.825 124.085L619.933 126.024L617.436 128.524L620.503 133.54L619.945 137.425L616.054 140.496L610.775 143.276L607.449 146.047H609.945L611.615 147.164L613.286 148.547L615.224 149.105L619.116 148.277L620.217 148.547L621.328 149.105L622.728 151.335L623.553 152.179L626.049 153.561L627.449 153.003L629.388 148.547L631.055 146.334L632.996 144.665L635.49 143.822H641.055L643.28 142.707L647.445 139.924L650.226 138.82L652.451 138.268H657.73L659.955 138.538L668.839 144.393L673.56 149.949L678.568 152.179L688.564 151.62L693.285 153.018L698.004 155.519L702.184 156.345L706.352 155.519L711.073 152.731L716.906 150.231L721.911 151.348L730.524 158.575L731.911 159.134L733.023 158.862L734.136 159.404L735.519 162.744L736.63 164.142L743.861 169.413L748.853 171.93L749.411 175.814L745.803 184.154L744.961 188.896L746.626 192.509L753.044 198.908Z" fill="#E1E2E4" stroke="black" stroke-width="2.50498" mask="url(#path-1-inside-1_539_32921)"/>
</svg>
