<svg width="829" height="534" viewBox="0 0 829 534" fill="none" xmlns="http://www.w3.org/2000/svg">
<mask id="path-1-inside-1_539_32917" fill="white">
<path d="M670.423 40.3542L668.584 40.7111L660.404 42.295L652.621 44.8045L645.387 47.8569L639.913 51.5099L638.717 52.3093L634.825 53.6902L633.246 53.5576L631.483 53.4101L628.457 54.9385L628.157 55.0903L628.076 55.0154L624.814 52.025L612.312 55.0903L608.413 53.4101L607.031 52.8672L603.959 52.3093L602.849 51.465L601.75 49.5284L600.907 48.9705L599.523 47.8569L598.963 47.5854H597.852L594.798 50.6399L593.955 52.5808L594.509 54.8038L595.898 56.4754L597.581 57.869L598.68 58.9827L599.634 61.1181L599.795 61.4793L598.68 63.4223L597.852 64.5338L581.481 78.1328L574.771 83.7053L570.046 87.0313L564.774 91.1076L563.922 91.7659L561.396 94.2903L546.137 109.537L545.934 109.86L544.738 111.765L543.638 113.988V117.598L544.738 121.495L544.466 122.322L543.621 123.718L539.728 125.945L536.663 128.292L535.016 129.555L531.673 132.605L529.446 134.275L526.381 136.231L518.33 139.281L514.433 140.395L507.21 140.95L504.427 141.504L498.303 144.001L495.805 144.272L492.19 141.504L490.524 140.11L488.025 139.01L484.684 138.727L438.521 143.721L434.35 142.891L431.285 141.775L428.787 140.11L427.959 138.727L427.67 137.612V136.774L423.217 134.557L411.812 130.107L402.08 128.442L396.527 127.882L394.029 128.713L390.957 131.208L389.019 133.163L387.077 134.546L384.579 135.944L376.782 137.043L367.604 140.38L353.147 143.99L348.422 145.946L346.751 146.217L341.755 146.499L339.244 147.611L332.848 149.282L320.059 148.169L316.038 147.893L315.89 147.882L315.05 152.606L310.053 157.057L302.259 158.166L300.032 157.328L295.863 153.718L293.637 152.893L291.697 153.434L291.968 155.387V157.328L288.912 158.438L290.582 160.381L290.854 162.606L289.754 164.275L287.528 164.004L286.129 162.048L285.857 159.825L285.017 157.884L282.79 156.501L278.906 157.328L270.555 162.334L266.673 164.275L260.277 165.113L258.322 164.831L252.485 163.161H250.258L245.534 164.831L243.035 165.113L241.365 163.448L238.295 157.328L237.196 155.659L235.241 155.101L229.973 154.817L228.018 155.101L225.791 156.501L224.407 158.724L223.293 161.221L221.909 163.719L220.238 165.384L218.296 166.772L216.069 167.612L213.843 168.168H211.06L209.389 167.612L205.492 165.384L201.039 164.275L191.589 164.562L187.136 164.004H183.253L176.017 167.058L138.203 169.281L121.517 167.34L106.773 160.111L94.5528 152.048L90.3711 151.219L87.6012 152.048L85.6462 153.733L83.9756 155.398L81.749 156.785L79.5223 157.615L74.7974 157.343L72.2991 157.615L67.8457 160.393L64.5047 168.452L61.4502 171.508L56.4408 172.618L41.4381 174.016L33.3721 176.239L30.5893 176.51L29.2032 176.239L26.4205 175.399L25.8643 177.342L28.3626 184.845L29.2032 187.341L30.3048 201.521L28.3626 204.585L28.0781 205.13V205.685L27.8065 206.243L26.4205 210.134L25.8643 212.904L24.4654 222.362L24.1938 222.903L23.9093 223.187L22.2388 224.028L21.1265 224.857L20.8549 225.413L20.5682 225.971L20.8549 227.084L21.9522 228.194L22.5104 229.023V229.85L21.6827 230.404L19.7255 230.962L16.4016 232.631L15.8433 232.917L15.2872 234.031L13.345 238.751L11.39 240.136L10.0061 240.692L9.72158 241.53L10.0061 242.359L10.5622 243.475L10.8467 244.856L10.2906 245.969L9.17828 246.811L6.95162 247.367L4.16669 248.464L0.284505 249.306L0 252.358V252.916L0.284505 253.2L1.95501 253.758L2.78281 254.03L5.28112 253.758H6.67998L8.06389 255.141L8.90664 257.082L9.46279 259.305L10.5622 261.261L12.2327 263.473L12.5172 265.139L11.9611 267.094L12.2456 269.317L13.0733 270.705L15.5716 274.041L16.6861 275.713L17.2422 276.822L18.0849 277.094L18.9127 276.822L20.025 275.713H20.5832L22.5233 277.938L21.98 279.875L20.3116 281.26L17.7983 282.102L20.025 283.483L22.2516 283.769L23.0944 284.599L22.5382 287.935L16.9705 297.377L16.4144 300.716L18.9255 313.214L21.98 320.161L23.0944 325.451L21.98 335.166L21.6955 345.734L19.7533 352.681L23.0944 351.287L28.6471 349.616L29.7615 348.789L30.3177 347.948L30.8738 346.277L31.4299 344.34L31.1454 340.446L31.4299 338.505L32.2598 336.835L34.4865 335.722L38.3815 336.008L40.6082 335.722L42.2787 334.895L43.9493 334.055L44.777 332.943L45.0615 332.112L45.3481 330.731V329.889L44.7899 329.046L43.9493 328.219L40.6082 325.165L39.5088 324.055L38.9526 322.657L38.1099 321.272L37.2821 317.664V314.597L37.5666 312.929L38.3965 311.542L40.0649 309.035L40.6232 307.934L41.1793 306.82V305.439L41.4509 302.659L42.2915 300.703L43.4059 299.32L47.5748 295.44L48.4026 294.326L48.9587 292.373L50.0731 290.988L52.2998 289.049L56.4664 285.979L59.8075 282.66L60.3636 281.818L62.5903 280.715L73.1546 278.763L81.2185 278.479L83.4452 277.938L87.0579 277.378L87.8856 276.822L88.7263 276.536L91.5112 274.313L93.4512 273.214L94.8373 272.928H96.5206L102.916 273.768H105.143L106.811 273.486H107.913L109.309 273.768L112.094 275.155L115.977 277.938L116.533 278.763L116.819 280.433L116.533 281.83L115.149 284.041L114.306 285.997L114.034 286.822V287.38H115.136L120.417 283.769L122.088 282.373L122.644 281.546L123.484 279.875L124.314 279.319H125.427L126.541 280.161L127.097 281.26L127.369 282.373V283.483L127.925 284.325L128.768 284.599L131.822 283.211L135.161 282.102L142.943 280.433H144.055L144.883 280.715L145.169 281.546V284.054L145.454 285.167L146.281 285.454L147.68 285.167L151.006 282.94L152.405 282.66L157.958 281.83L162.142 282.388L165.466 283.211L170.477 282.94H171.861L172.704 284.041L173.532 285.997L174.372 286.55H175.773L177.157 286.822L178.257 287.935L179.097 289.049V292.386L178.257 296.282L178.541 297.392L179.384 297.935L181.324 296.834L183.266 295.724H183.551L184.381 296.282L184.665 297.392L185.777 297.663L187.72 297.392L198.568 293.228H200.795L201.067 294.895L200.511 298.779V301.002L201.067 303.501V308.22L202.466 311.557L204.134 312.386L205.52 312.113L208.018 311.271L210.245 309.334L216.097 302.943L218.037 299.873L219.981 298.208L222.208 296.823L229.442 294.598L236.937 294.312L243.889 290.701L244.447 289.59L244.731 288.765H243.889L240.836 290.988L239.994 291.261L238.892 291.546L237.224 290.988L236.665 290.43L236.937 289.607L239.722 287.38L240.836 286.266L243.333 281.818L245.561 279.875L248.058 277.378L249.172 275.155L251.112 271.532L252.226 270.431L254.169 269.875L256.667 270.431L258.335 271.532L259.178 272.928L259.465 274.871V275.17L259.178 276.264L258.335 279.05L257.792 280.433L257.236 282.388L257.507 283.498L258.906 284.325L260.577 284.885L262.803 284.599L265.586 283.211L267.528 281.546L268.912 279.59L270.311 276.536L271.139 275.155L271.695 270.991L272.253 269.589L273.096 268.479L278.647 263.758L280.319 262.928H282.816L285.885 264.316L289.498 267.924L291.438 269.035L292.837 269.589L295.335 269.875L299.502 269.317L308.126 267.094H309.51L311.178 267.366H312.579L320.915 265.156L325.082 263.484L327.036 262.928L338.713 263.484L340.099 263.758L340.655 264.316V265.156L339.543 267.652L329.535 276.264L328.981 276.822L328.423 277.938L328.151 279.319L328.423 280.715L328.981 282.373L329.807 282.929L332.591 283.483L333.434 284.599V286.266L331.49 290.988L329.535 296.267L327.308 300.444L327.036 301.545L327.308 302.943L327.866 304.61L328.151 306.551V309.048L327.308 316.552V317.933L327.866 318.776H328.709L330.093 317.378L332.32 315.995L335.103 314.61L340.386 313.498L346.779 312.944L348.721 311.557L350.118 310.448L353.459 308.22L355.401 307.663L357.341 308.22L359.568 309.334L362.066 312.673L367.634 316.552L373.471 321.828L382.921 332.112L383.206 332.398H383.492L383.764 332.669H384.322L385.991 331.84L386.831 331.289L389.329 329.617L391.002 328.775L392.112 328.503H392.942L394.054 329.061L394.339 329.604L394.611 331.002L394.054 332.112L393.229 333.214L392.112 334.055L391.284 334.895L390.731 335.993L389.329 338.218L388.504 339.33L385.161 342.669L382.378 344.34L381.824 344.896V345.437L382.106 346.277L385.447 347.664L386.549 348.22L387.103 349.887L387.946 350.729L388.504 351.559L392.942 352.668L394.626 353.224L395.727 353.498L397.124 354.611L402.407 359.059L404.075 361.287L405.188 362.396L407.404 364.068L408.514 365.181L409.359 366.562L409.63 367.949L409.359 369.629L408.801 371.286L407.958 372.953V374.351L408.242 375.196L408.529 375.736L408.801 376.576L409.087 377.675L409.641 378.517L411.314 380.187V381.027L410.469 381.858L394.339 387.414L390.172 391.864L388.786 391.586L384.061 392.698H382.121L379.336 392.14L378.782 392.411L378.496 393.527V394.649L378.209 395.493L376.556 396.047H375.155L373.771 396.605L372.102 397.702L369.317 400.215L364.592 403.537L359.025 409.659L355.701 412.705L355.972 413.823L357.085 414.109L359.311 414.93V415.49L363.478 418.542L364.592 419.102L365.151 419.652L364.034 420.498L367.362 421.877L368.475 423.264L369.589 425.22L369.876 427.717L369.589 429.384L367.921 432.167L363.196 433.268L355.13 435.771L354.017 435.493L352.916 435.209L352.36 434.379V433.537L343.466 428.262L338.456 426.59L334.559 428.262L334.003 430.487L334.559 432.979L336.23 437.434L336.514 439.655L336.23 441.882L335.958 443.821L329.278 461.881L328.179 467.171L327.623 471.893L326.78 474.118L325.396 476.061L325.109 476.333L326.222 476.89L334.559 482.166L335.361 483.008L335.918 483.837L336.202 485.231V490.767L336.745 492.152L339.256 496.603L339.528 497.986V500.5L339.256 502.71L338.7 504.661L334.247 514.665L334.803 516.044L335.633 517.161L344.54 518.555L353.703 517.999L359.827 518.269L360.655 518.555L361.213 518.839L361.497 519.111V519.665L361.213 520.225L360.941 521.069L359.827 522.734L359.542 523.29V524.391L360.655 528.001L361.769 530.224L362.597 531.338L363.44 532.163L364.552 533.005L365.938 533.558H368.164L369.264 533.005L370.934 531.893L372.047 530.784L374.002 528.559L378.171 524.946L382.339 520.782L383.723 519.665L385.122 519.111L385.95 518.827L386.793 518.286L387.064 517.172V516.059L386.521 514.676L386.793 512.446L387.633 510.497L394.029 504.105L396.812 501.333L397.637 500.228L398.198 499.384L398.754 496.887L402.923 486.334L403.479 485.214L404.306 484.658L405.149 484.943L406.815 486.334L407.648 487.439L413.495 499.108L414.599 500.5L416.554 500.782H417.938L426.845 497.173L428.502 497.999L432.684 498.836H434.911L438.237 496.06L437.409 494.386L440.748 494.106L441.845 489.94L442.69 479.116L444.361 474.105L445.473 472.994L447.7 472.712L449.086 471.609L448.243 469.386L446.299 465.222L448.797 461.039L449.642 458.546L448.525 457.443L447.7 457.155L447.415 456.05L447.131 453.82L447.687 452.704L447.971 452.437L448.525 451.041L449.357 448.829L450.47 443.549L451.295 441.326L452.14 439.37L452.696 438.81L453.522 438.259L454.082 437.99L455.195 437.434H456.037L456.309 437.718L457.693 439.099L458.536 439.383L459.376 439.655L460.474 439.383L461.874 438.543L462.428 437.434L462.7 436.331L462.989 434.379L465.487 429.655L468.826 424.936L468.542 423.264L468.257 422.708L467.153 421.599V420.77L467.425 420.214L467.986 419.94L468.542 419.652L469.38 419.374L470.484 419.102L471.596 417.702L471.878 416.877V416.033L469.652 412.155L469.94 409.086L470.212 408.255L470.768 406.863L471.596 406.034L472.439 405.48L473.551 405.191L475.493 404.636L476.603 404.076L477.164 402.983L477.72 401.308L478.548 399.645L480.218 397.689L481.057 396.024L483.555 388.805L487.17 380.738L489.397 377.119L491.067 375.183L494.406 371.57L495.232 368.789V366.562L495.792 362.954L495.503 360.731L495.232 358.79L494.678 357.392L493.837 354.895L493.005 353.51L491.623 352.112L490.224 351.287L488.84 350.445L487.442 349.616L486.614 348.22L486.053 346.837L485.228 345.721L484.387 345.165L483.827 344.625L483.542 344.34V344.054L483.001 343.227L482.16 342.113L480.218 340.174L479.662 339.059L479.934 337.393L481.046 336.28L485.228 332.943L490.494 327.948L498.002 322.942L504.128 317.933L511.633 307.934L514.131 305.439L526.64 295.154L527.75 293.756L528.308 293.213L528.022 292.373L527.481 291.546L525.252 289.59L524.696 288.493L524.142 287.38V286.266L525.252 285.156L526.64 284.325L530.249 282.929L533.32 281.26L533.874 280.715H536.103L538.317 281.26L539.711 281.818L540.556 283.211L541.097 284.599L541.384 286.537V288.493L541.097 290.158L540.556 291.546L539.44 292.926L537.487 295.154L536.928 296.267L536.659 297.105L536.928 297.935L537.487 298.493H538.599L540.826 298.208L544.725 296.537L551.116 295.712L553.615 294.869L557.783 292.644L559.454 290.975L562.793 285.697L563.909 284.599L564.451 283.483L564.735 282.643L563.625 279.59L562.793 278.195L562.508 277.367L562.239 275.982V271.532L562.78 269.589L563.896 267.909L565.293 266.81L566.123 265.696L566.406 264.585L567.505 257.082L567.233 255.411L566.395 252.358V251.245L567.233 249.579L579.468 233.189L583.635 229.023L586.978 226.798L588.36 225.4L589.205 223.728L590.03 220.407L590.873 213.46L591.703 210.948L593.1 208.454L598.383 202.902L601.435 198.454L604.218 200.119V202.062L605.048 205.957V206.226L605.606 207.338L606.445 208.182L607.546 208.74H608.943L611.17 207.624L612.84 206.226L614.513 204.572L616.74 202.616L617.852 201.521L620.906 196.783L621.193 194.288V191.791L622.019 190.122L626.19 185.672L627.3 183.731L628.701 182.346L629.526 181.792L630.927 181.506L632.87 181.792L633.967 181.234L635.368 180.121L636.75 179.007L637.866 178.184L638.976 178.455H642.863L653.438 174.016L656.208 172.902L665.944 166.515L670.398 162.616L674.851 156.785L678.459 150.668L680.13 148.722L683.758 145.674L684.87 144.559L685.695 143.721L686.81 144.001L687.638 144.287L690.709 146.514L692.091 147.057L694.033 147.611H696.26L698.773 147.057L700.713 146.228L716.002 137.054L716.289 136.502L717.115 135.673L718.229 133.717L719.628 132.62L720.727 131.22L721.286 130.949L722.68 130.665H724.622L727.679 131.22L729.347 130.936L730.464 130.378L736.299 126.216L742.981 121.208L744.652 120.381L746.878 119.269L749.375 118.712L751.873 117.598L754.927 115.103L756.884 112.607L758.27 110.108L758.824 108.171L759.38 105.388L760.21 103.719L760.769 102.605L761.879 101.778L763.267 100.938L766.048 99.5508L767.72 99.2687L769.389 99.5508L771.615 100.654L774.4 102.877L777.739 104.833L780.507 105.376L800.821 97.5992H802.491L806.66 98.1571L807.486 97.8707L808.887 97.5992H811.099L814.437 98.9822L814.994 98.6979L815.823 98.1422L816.11 97.3171L816.664 95.9298L817.492 95.0919L818.05 94.534L820.548 93.9783L821.107 93.6918L821.661 93.4204L821.945 92.8646L822.217 92.3067L822.775 90.6416L823.333 89.8101L824.444 88.6964L826.942 87.5871L827.5 87.3028L827.787 86.7449L828.058 85.9177L828.341 85.0755V81.198L828.058 80.0843L827.5 78.6992L825.002 75.6319L824.172 75.089L822.775 74.8025H820.835L819.718 75.089L819.162 75.3604L818.621 75.6447L818.065 76.2047L813.883 81.198L813.051 82.0359L812.211 81.7495L811.939 80.6551L812.497 78.1584V76.4869L812.211 75.3732L811.37 74.8175L811.099 73.9796V73.1502L813.325 68.4263L812.767 65.9296L812.211 60.0856L811.099 58.412L810.269 57.5869L806.932 55.9175L805.815 55.0753L803.873 53.1387L802.491 52.2965L801.375 51.465L800.534 50.3535L800.265 49.242L799.148 41.1963L798.594 39.7963L797.766 38.1311L799.148 34.8051L802.478 30.0705L813.883 17.5745L818.891 10.0697L820.563 6.17509L822.501 3.12272L823.346 1.45542V0.61324L822.23 0.0703125L789.97 0.341776L784.133 2.0112L773.284 8.68881L770.788 10.6275L767.462 12.5663L760.781 14.7936L749.661 16.7302L746.335 17.0166L744.38 16.4587L742.438 16.1766L741.054 15.3493L737.428 13.4085H736.312L734.93 13.9642L728.806 17.5745L689.877 30.9106L683.062 34.2194L674.866 38.1974L670.423 40.3542Z"/>
</mask>
<g filter="url(#filter0_i_539_32917)">
<path d="M670.423 40.3542L668.584 40.7111L660.404 42.295L652.621 44.8045L645.387 47.8569L639.913 51.5099L638.717 52.3093L634.825 53.6902L633.246 53.5576L631.483 53.4101L628.457 54.9385L628.157 55.0903L628.076 55.0154L624.814 52.025L612.312 55.0903L608.413 53.4101L607.031 52.8672L603.959 52.3093L602.849 51.465L601.75 49.5284L600.907 48.9705L599.523 47.8569L598.963 47.5854H597.852L594.798 50.6399L593.955 52.5808L594.509 54.8038L595.898 56.4754L597.581 57.869L598.68 58.9827L599.634 61.1181L599.795 61.4793L598.68 63.4223L597.852 64.5338L581.481 78.1328L574.771 83.7053L570.046 87.0313L564.774 91.1076L563.922 91.7659L561.396 94.2903L546.137 109.537L545.934 109.86L544.738 111.765L543.638 113.988V117.598L544.738 121.495L544.466 122.322L543.621 123.718L539.728 125.945L536.663 128.292L535.016 129.555L531.673 132.605L529.446 134.275L526.381 136.231L518.33 139.281L514.433 140.395L507.21 140.95L504.427 141.504L498.303 144.001L495.805 144.272L492.19 141.504L490.524 140.11L488.025 139.01L484.684 138.727L438.521 143.721L434.35 142.891L431.285 141.775L428.787 140.11L427.959 138.727L427.67 137.612V136.774L423.217 134.557L411.812 130.107L402.08 128.442L396.527 127.882L394.029 128.713L390.957 131.208L389.019 133.163L387.077 134.546L384.579 135.944L376.782 137.043L367.604 140.38L353.147 143.99L348.422 145.946L346.751 146.217L341.755 146.499L339.244 147.611L332.848 149.282L320.059 148.169L316.038 147.893L315.89 147.882L315.05 152.606L310.053 157.057L302.259 158.166L300.032 157.328L295.863 153.718L293.637 152.893L291.697 153.434L291.968 155.387V157.328L288.912 158.438L290.582 160.381L290.854 162.606L289.754 164.275L287.528 164.004L286.129 162.048L285.857 159.825L285.017 157.884L282.79 156.501L278.906 157.328L270.555 162.334L266.673 164.275L260.277 165.113L258.322 164.831L252.485 163.161H250.258L245.534 164.831L243.035 165.113L241.365 163.448L238.295 157.328L237.196 155.659L235.241 155.101L229.973 154.817L228.018 155.101L225.791 156.501L224.407 158.724L223.293 161.221L221.909 163.719L220.238 165.384L218.296 166.772L216.069 167.612L213.843 168.168H211.06L209.389 167.612L205.492 165.384L201.039 164.275L191.589 164.562L187.136 164.004H183.253L176.017 167.058L138.203 169.281L121.517 167.34L106.773 160.111L94.5528 152.048L90.3711 151.219L87.6012 152.048L85.6462 153.733L83.9756 155.398L81.749 156.785L79.5223 157.615L74.7974 157.343L72.2991 157.615L67.8457 160.393L64.5047 168.452L61.4502 171.508L56.4408 172.618L41.4381 174.016L33.3721 176.239L30.5893 176.51L29.2032 176.239L26.4205 175.399L25.8643 177.342L28.3626 184.845L29.2032 187.341L30.3048 201.521L28.3626 204.585L28.0781 205.13V205.685L27.8065 206.243L26.4205 210.134L25.8643 212.904L24.4654 222.362L24.1938 222.903L23.9093 223.187L22.2388 224.028L21.1265 224.857L20.8549 225.413L20.5682 225.971L20.8549 227.084L21.9522 228.194L22.5104 229.023V229.85L21.6827 230.404L19.7255 230.962L16.4016 232.631L15.8433 232.917L15.2872 234.031L13.345 238.751L11.39 240.136L10.0061 240.692L9.72158 241.53L10.0061 242.359L10.5622 243.475L10.8467 244.856L10.2906 245.969L9.17828 246.811L6.95162 247.367L4.16669 248.464L0.284505 249.306L0 252.358V252.916L0.284505 253.2L1.95501 253.758L2.78281 254.03L5.28112 253.758H6.67998L8.06389 255.141L8.90664 257.082L9.46279 259.305L10.5622 261.261L12.2327 263.473L12.5172 265.139L11.9611 267.094L12.2456 269.317L13.0733 270.705L15.5716 274.041L16.6861 275.713L17.2422 276.822L18.0849 277.094L18.9127 276.822L20.025 275.713H20.5832L22.5233 277.938L21.98 279.875L20.3116 281.26L17.7983 282.102L20.025 283.483L22.2516 283.769L23.0944 284.599L22.5382 287.935L16.9705 297.377L16.4144 300.716L18.9255 313.214L21.98 320.161L23.0944 325.451L21.98 335.166L21.6955 345.734L19.7533 352.681L23.0944 351.287L28.6471 349.616L29.7615 348.789L30.3177 347.948L30.8738 346.277L31.4299 344.34L31.1454 340.446L31.4299 338.505L32.2598 336.835L34.4865 335.722L38.3815 336.008L40.6082 335.722L42.2787 334.895L43.9493 334.055L44.777 332.943L45.0615 332.112L45.3481 330.731V329.889L44.7899 329.046L43.9493 328.219L40.6082 325.165L39.5088 324.055L38.9526 322.657L38.1099 321.272L37.2821 317.664V314.597L37.5666 312.929L38.3965 311.542L40.0649 309.035L40.6232 307.934L41.1793 306.82V305.439L41.4509 302.659L42.2915 300.703L43.4059 299.32L47.5748 295.44L48.4026 294.326L48.9587 292.373L50.0731 290.988L52.2998 289.049L56.4664 285.979L59.8075 282.66L60.3636 281.818L62.5903 280.715L73.1546 278.763L81.2185 278.479L83.4452 277.938L87.0579 277.378L87.8856 276.822L88.7263 276.536L91.5112 274.313L93.4512 273.214L94.8373 272.928H96.5206L102.916 273.768H105.143L106.811 273.486H107.913L109.309 273.768L112.094 275.155L115.977 277.938L116.533 278.763L116.819 280.433L116.533 281.83L115.149 284.041L114.306 285.997L114.034 286.822V287.38H115.136L120.417 283.769L122.088 282.373L122.644 281.546L123.484 279.875L124.314 279.319H125.427L126.541 280.161L127.097 281.26L127.369 282.373V283.483L127.925 284.325L128.768 284.599L131.822 283.211L135.161 282.102L142.943 280.433H144.055L144.883 280.715L145.169 281.546V284.054L145.454 285.167L146.281 285.454L147.68 285.167L151.006 282.94L152.405 282.66L157.958 281.83L162.142 282.388L165.466 283.211L170.477 282.94H171.861L172.704 284.041L173.532 285.997L174.372 286.55H175.773L177.157 286.822L178.257 287.935L179.097 289.049V292.386L178.257 296.282L178.541 297.392L179.384 297.935L181.324 296.834L183.266 295.724H183.551L184.381 296.282L184.665 297.392L185.777 297.663L187.72 297.392L198.568 293.228H200.795L201.067 294.895L200.511 298.779V301.002L201.067 303.501V308.22L202.466 311.557L204.134 312.386L205.52 312.113L208.018 311.271L210.245 309.334L216.097 302.943L218.037 299.873L219.981 298.208L222.208 296.823L229.442 294.598L236.937 294.312L243.889 290.701L244.447 289.59L244.731 288.765H243.889L240.836 290.988L239.994 291.261L238.892 291.546L237.224 290.988L236.665 290.43L236.937 289.607L239.722 287.38L240.836 286.266L243.333 281.818L245.561 279.875L248.058 277.378L249.172 275.155L251.112 271.532L252.226 270.431L254.169 269.875L256.667 270.431L258.335 271.532L259.178 272.928L259.465 274.871V275.17L259.178 276.264L258.335 279.05L257.792 280.433L257.236 282.388L257.507 283.498L258.906 284.325L260.577 284.885L262.803 284.599L265.586 283.211L267.528 281.546L268.912 279.59L270.311 276.536L271.139 275.155L271.695 270.991L272.253 269.589L273.096 268.479L278.647 263.758L280.319 262.928H282.816L285.885 264.316L289.498 267.924L291.438 269.035L292.837 269.589L295.335 269.875L299.502 269.317L308.126 267.094H309.51L311.178 267.366H312.579L320.915 265.156L325.082 263.484L327.036 262.928L338.713 263.484L340.099 263.758L340.655 264.316V265.156L339.543 267.652L329.535 276.264L328.981 276.822L328.423 277.938L328.151 279.319L328.423 280.715L328.981 282.373L329.807 282.929L332.591 283.483L333.434 284.599V286.266L331.49 290.988L329.535 296.267L327.308 300.444L327.036 301.545L327.308 302.943L327.866 304.61L328.151 306.551V309.048L327.308 316.552V317.933L327.866 318.776H328.709L330.093 317.378L332.32 315.995L335.103 314.61L340.386 313.498L346.779 312.944L348.721 311.557L350.118 310.448L353.459 308.22L355.401 307.663L357.341 308.22L359.568 309.334L362.066 312.673L367.634 316.552L373.471 321.828L382.921 332.112L383.206 332.398H383.492L383.764 332.669H384.322L385.991 331.84L386.831 331.289L389.329 329.617L391.002 328.775L392.112 328.503H392.942L394.054 329.061L394.339 329.604L394.611 331.002L394.054 332.112L393.229 333.214L392.112 334.055L391.284 334.895L390.731 335.993L389.329 338.218L388.504 339.33L385.161 342.669L382.378 344.34L381.824 344.896V345.437L382.106 346.277L385.447 347.664L386.549 348.22L387.103 349.887L387.946 350.729L388.504 351.559L392.942 352.668L394.626 353.224L395.727 353.498L397.124 354.611L402.407 359.059L404.075 361.287L405.188 362.396L407.404 364.068L408.514 365.181L409.359 366.562L409.63 367.949L409.359 369.629L408.801 371.286L407.958 372.953V374.351L408.242 375.196L408.529 375.736L408.801 376.576L409.087 377.675L409.641 378.517L411.314 380.187V381.027L410.469 381.858L394.339 387.414L390.172 391.864L388.786 391.586L384.061 392.698H382.121L379.336 392.14L378.782 392.411L378.496 393.527V394.649L378.209 395.493L376.556 396.047H375.155L373.771 396.605L372.102 397.702L369.317 400.215L364.592 403.537L359.025 409.659L355.701 412.705L355.972 413.823L357.085 414.109L359.311 414.93V415.49L363.478 418.542L364.592 419.102L365.151 419.652L364.034 420.498L367.362 421.877L368.475 423.264L369.589 425.22L369.876 427.717L369.589 429.384L367.921 432.167L363.196 433.268L355.13 435.771L354.017 435.493L352.916 435.209L352.36 434.379V433.537L343.466 428.262L338.456 426.59L334.559 428.262L334.003 430.487L334.559 432.979L336.23 437.434L336.514 439.655L336.23 441.882L335.958 443.821L329.278 461.881L328.179 467.171L327.623 471.893L326.78 474.118L325.396 476.061L325.109 476.333L326.222 476.89L334.559 482.166L335.361 483.008L335.918 483.837L336.202 485.231V490.767L336.745 492.152L339.256 496.603L339.528 497.986V500.5L339.256 502.71L338.7 504.661L334.247 514.665L334.803 516.044L335.633 517.161L344.54 518.555L353.703 517.999L359.827 518.269L360.655 518.555L361.213 518.839L361.497 519.111V519.665L361.213 520.225L360.941 521.069L359.827 522.734L359.542 523.29V524.391L360.655 528.001L361.769 530.224L362.597 531.338L363.44 532.163L364.552 533.005L365.938 533.558H368.164L369.264 533.005L370.934 531.893L372.047 530.784L374.002 528.559L378.171 524.946L382.339 520.782L383.723 519.665L385.122 519.111L385.95 518.827L386.793 518.286L387.064 517.172V516.059L386.521 514.676L386.793 512.446L387.633 510.497L394.029 504.105L396.812 501.333L397.637 500.228L398.198 499.384L398.754 496.887L402.923 486.334L403.479 485.214L404.306 484.658L405.149 484.943L406.815 486.334L407.648 487.439L413.495 499.108L414.599 500.5L416.554 500.782H417.938L426.845 497.173L428.502 497.999L432.684 498.836H434.911L438.237 496.06L437.409 494.386L440.748 494.106L441.845 489.94L442.69 479.116L444.361 474.105L445.473 472.994L447.7 472.712L449.086 471.609L448.243 469.386L446.299 465.222L448.797 461.039L449.642 458.546L448.525 457.443L447.7 457.155L447.415 456.05L447.131 453.82L447.687 452.704L447.971 452.437L448.525 451.041L449.357 448.829L450.47 443.549L451.295 441.326L452.14 439.37L452.696 438.81L453.522 438.259L454.082 437.99L455.195 437.434H456.037L456.309 437.718L457.693 439.099L458.536 439.383L459.376 439.655L460.474 439.383L461.874 438.543L462.428 437.434L462.7 436.331L462.989 434.379L465.487 429.655L468.826 424.936L468.542 423.264L468.257 422.708L467.153 421.599V420.77L467.425 420.214L467.986 419.94L468.542 419.652L469.38 419.374L470.484 419.102L471.596 417.702L471.878 416.877V416.033L469.652 412.155L469.94 409.086L470.212 408.255L470.768 406.863L471.596 406.034L472.439 405.48L473.551 405.191L475.493 404.636L476.603 404.076L477.164 402.983L477.72 401.308L478.548 399.645L480.218 397.689L481.057 396.024L483.555 388.805L487.17 380.738L489.397 377.119L491.067 375.183L494.406 371.57L495.232 368.789V366.562L495.792 362.954L495.503 360.731L495.232 358.79L494.678 357.392L493.837 354.895L493.005 353.51L491.623 352.112L490.224 351.287L488.84 350.445L487.442 349.616L486.614 348.22L486.053 346.837L485.228 345.721L484.387 345.165L483.827 344.625L483.542 344.34V344.054L483.001 343.227L482.16 342.113L480.218 340.174L479.662 339.059L479.934 337.393L481.046 336.28L485.228 332.943L490.494 327.948L498.002 322.942L504.128 317.933L511.633 307.934L514.131 305.439L526.64 295.154L527.75 293.756L528.308 293.213L528.022 292.373L527.481 291.546L525.252 289.59L524.696 288.493L524.142 287.38V286.266L525.252 285.156L526.64 284.325L530.249 282.929L533.32 281.26L533.874 280.715H536.103L538.317 281.26L539.711 281.818L540.556 283.211L541.097 284.599L541.384 286.537V288.493L541.097 290.158L540.556 291.546L539.44 292.926L537.487 295.154L536.928 296.267L536.659 297.105L536.928 297.935L537.487 298.493H538.599L540.826 298.208L544.725 296.537L551.116 295.712L553.615 294.869L557.783 292.644L559.454 290.975L562.793 285.697L563.909 284.599L564.451 283.483L564.735 282.643L563.625 279.59L562.793 278.195L562.508 277.367L562.239 275.982V271.532L562.78 269.589L563.896 267.909L565.293 266.81L566.123 265.696L566.406 264.585L567.505 257.082L567.233 255.411L566.395 252.358V251.245L567.233 249.579L579.468 233.189L583.635 229.023L586.978 226.798L588.36 225.4L589.205 223.728L590.03 220.407L590.873 213.46L591.703 210.948L593.1 208.454L598.383 202.902L601.435 198.454L604.218 200.119V202.062L605.048 205.957V206.226L605.606 207.338L606.445 208.182L607.546 208.74H608.943L611.17 207.624L612.84 206.226L614.513 204.572L616.74 202.616L617.852 201.521L620.906 196.783L621.193 194.288V191.791L622.019 190.122L626.19 185.672L627.3 183.731L628.701 182.346L629.526 181.792L630.927 181.506L632.87 181.792L633.967 181.234L635.368 180.121L636.75 179.007L637.866 178.184L638.976 178.455H642.863L653.438 174.016L656.208 172.902L665.944 166.515L670.398 162.616L674.851 156.785L678.459 150.668L680.13 148.722L683.758 145.674L684.87 144.559L685.695 143.721L686.81 144.001L687.638 144.287L690.709 146.514L692.091 147.057L694.033 147.611H696.26L698.773 147.057L700.713 146.228L716.002 137.054L716.289 136.502L717.115 135.673L718.229 133.717L719.628 132.62L720.727 131.22L721.286 130.949L722.68 130.665H724.622L727.679 131.22L729.347 130.936L730.464 130.378L736.299 126.216L742.981 121.208L744.652 120.381L746.878 119.269L749.375 118.712L751.873 117.598L754.927 115.103L756.884 112.607L758.27 110.108L758.824 108.171L759.38 105.388L760.21 103.719L760.769 102.605L761.879 101.778L763.267 100.938L766.048 99.5508L767.72 99.2687L769.389 99.5508L771.615 100.654L774.4 102.877L777.739 104.833L780.507 105.376L800.821 97.5992H802.491L806.66 98.1571L807.486 97.8707L808.887 97.5992H811.099L814.437 98.9822L814.994 98.6979L815.823 98.1422L816.11 97.3171L816.664 95.9298L817.492 95.0919L818.05 94.534L820.548 93.9783L821.107 93.6918L821.661 93.4204L821.945 92.8646L822.217 92.3067L822.775 90.6416L823.333 89.8101L824.444 88.6964L826.942 87.5871L827.5 87.3028L827.787 86.7449L828.058 85.9177L828.341 85.0755V81.198L828.058 80.0843L827.5 78.6992L825.002 75.6319L824.172 75.089L822.775 74.8025H820.835L819.718 75.089L819.162 75.3604L818.621 75.6447L818.065 76.2047L813.883 81.198L813.051 82.0359L812.211 81.7495L811.939 80.6551L812.497 78.1584V76.4869L812.211 75.3732L811.37 74.8175L811.099 73.9796V73.1502L813.325 68.4263L812.767 65.9296L812.211 60.0856L811.099 58.412L810.269 57.5869L806.932 55.9175L805.815 55.0753L803.873 53.1387L802.491 52.2965L801.375 51.465L800.534 50.3535L800.265 49.242L799.148 41.1963L798.594 39.7963L797.766 38.1311L799.148 34.8051L802.478 30.0705L813.883 17.5745L818.891 10.0697L820.563 6.17509L822.501 3.12272L823.346 1.45542V0.61324L822.23 0.0703125L789.97 0.341776L784.133 2.0112L773.284 8.68881L770.788 10.6275L767.462 12.5663L760.781 14.7936L749.661 16.7302L746.335 17.0166L744.38 16.4587L742.438 16.1766L741.054 15.3493L737.428 13.4085H736.312L734.93 13.9642L728.806 17.5745L689.877 30.9106L683.062 34.2194L674.866 38.1974L670.423 40.3542Z" fill="#EDE5E0"/>
</g>
<path d="M670.423 40.3542L668.584 40.7111L660.404 42.295L652.621 44.8045L645.387 47.8569L639.913 51.5099L638.717 52.3093L634.825 53.6902L633.246 53.5576L631.483 53.4101L628.457 54.9385L628.157 55.0903L628.076 55.0154L624.814 52.025L612.312 55.0903L608.413 53.4101L607.031 52.8672L603.959 52.3093L602.849 51.465L601.75 49.5284L600.907 48.9705L599.523 47.8569L598.963 47.5854H597.852L594.798 50.6399L593.955 52.5808L594.509 54.8038L595.898 56.4754L597.581 57.869L598.68 58.9827L599.634 61.1181L599.795 61.4793L598.68 63.4223L597.852 64.5338L581.481 78.1328L574.771 83.7053L570.046 87.0313L564.774 91.1076L563.922 91.7659L561.396 94.2903L546.137 109.537L545.934 109.86L544.738 111.765L543.638 113.988V117.598L544.738 121.495L544.466 122.322L543.621 123.718L539.728 125.945L536.663 128.292L535.016 129.555L531.673 132.605L529.446 134.275L526.381 136.231L518.33 139.281L514.433 140.395L507.21 140.95L504.427 141.504L498.303 144.001L495.805 144.272L492.19 141.504L490.524 140.11L488.025 139.01L484.684 138.727L438.521 143.721L434.35 142.891L431.285 141.775L428.787 140.11L427.959 138.727L427.67 137.612V136.774L423.217 134.557L411.812 130.107L402.08 128.442L396.527 127.882L394.029 128.713L390.957 131.208L389.019 133.163L387.077 134.546L384.579 135.944L376.782 137.043L367.604 140.38L353.147 143.99L348.422 145.946L346.751 146.217L341.755 146.499L339.244 147.611L332.848 149.282L320.059 148.169L316.038 147.893L315.89 147.882L315.05 152.606L310.053 157.057L302.259 158.166L300.032 157.328L295.863 153.718L293.637 152.893L291.697 153.434L291.968 155.387V157.328L288.912 158.438L290.582 160.381L290.854 162.606L289.754 164.275L287.528 164.004L286.129 162.048L285.857 159.825L285.017 157.884L282.79 156.501L278.906 157.328L270.555 162.334L266.673 164.275L260.277 165.113L258.322 164.831L252.485 163.161H250.258L245.534 164.831L243.035 165.113L241.365 163.448L238.295 157.328L237.196 155.659L235.241 155.101L229.973 154.817L228.018 155.101L225.791 156.501L224.407 158.724L223.293 161.221L221.909 163.719L220.238 165.384L218.296 166.772L216.069 167.612L213.843 168.168H211.06L209.389 167.612L205.492 165.384L201.039 164.275L191.589 164.562L187.136 164.004H183.253L176.017 167.058L138.203 169.281L121.517 167.34L106.773 160.111L94.5528 152.048L90.3711 151.219L87.6012 152.048L85.6462 153.733L83.9756 155.398L81.749 156.785L79.5223 157.615L74.7974 157.343L72.2991 157.615L67.8457 160.393L64.5047 168.452L61.4502 171.508L56.4408 172.618L41.4381 174.016L33.3721 176.239L30.5893 176.51L29.2032 176.239L26.4205 175.399L25.8643 177.342L28.3626 184.845L29.2032 187.341L30.3048 201.521L28.3626 204.585L28.0781 205.13V205.685L27.8065 206.243L26.4205 210.134L25.8643 212.904L24.4654 222.362L24.1938 222.903L23.9093 223.187L22.2388 224.028L21.1265 224.857L20.8549 225.413L20.5682 225.971L20.8549 227.084L21.9522 228.194L22.5104 229.023V229.85L21.6827 230.404L19.7255 230.962L16.4016 232.631L15.8433 232.917L15.2872 234.031L13.345 238.751L11.39 240.136L10.0061 240.692L9.72158 241.53L10.0061 242.359L10.5622 243.475L10.8467 244.856L10.2906 245.969L9.17828 246.811L6.95162 247.367L4.16669 248.464L0.284505 249.306L0 252.358V252.916L0.284505 253.2L1.95501 253.758L2.78281 254.03L5.28112 253.758H6.67998L8.06389 255.141L8.90664 257.082L9.46279 259.305L10.5622 261.261L12.2327 263.473L12.5172 265.139L11.9611 267.094L12.2456 269.317L13.0733 270.705L15.5716 274.041L16.6861 275.713L17.2422 276.822L18.0849 277.094L18.9127 276.822L20.025 275.713H20.5832L22.5233 277.938L21.98 279.875L20.3116 281.26L17.7983 282.102L20.025 283.483L22.2516 283.769L23.0944 284.599L22.5382 287.935L16.9705 297.377L16.4144 300.716L18.9255 313.214L21.98 320.161L23.0944 325.451L21.98 335.166L21.6955 345.734L19.7533 352.681L23.0944 351.287L28.6471 349.616L29.7615 348.789L30.3177 347.948L30.8738 346.277L31.4299 344.34L31.1454 340.446L31.4299 338.505L32.2598 336.835L34.4865 335.722L38.3815 336.008L40.6082 335.722L42.2787 334.895L43.9493 334.055L44.777 332.943L45.0615 332.112L45.3481 330.731V329.889L44.7899 329.046L43.9493 328.219L40.6082 325.165L39.5088 324.055L38.9526 322.657L38.1099 321.272L37.2821 317.664V314.597L37.5666 312.929L38.3965 311.542L40.0649 309.035L40.6232 307.934L41.1793 306.82V305.439L41.4509 302.659L42.2915 300.703L43.4059 299.32L47.5748 295.44L48.4026 294.326L48.9587 292.373L50.0731 290.988L52.2998 289.049L56.4664 285.979L59.8075 282.66L60.3636 281.818L62.5903 280.715L73.1546 278.763L81.2185 278.479L83.4452 277.938L87.0579 277.378L87.8856 276.822L88.7263 276.536L91.5112 274.313L93.4512 273.214L94.8373 272.928H96.5206L102.916 273.768H105.143L106.811 273.486H107.913L109.309 273.768L112.094 275.155L115.977 277.938L116.533 278.763L116.819 280.433L116.533 281.83L115.149 284.041L114.306 285.997L114.034 286.822V287.38H115.136L120.417 283.769L122.088 282.373L122.644 281.546L123.484 279.875L124.314 279.319H125.427L126.541 280.161L127.097 281.26L127.369 282.373V283.483L127.925 284.325L128.768 284.599L131.822 283.211L135.161 282.102L142.943 280.433H144.055L144.883 280.715L145.169 281.546V284.054L145.454 285.167L146.281 285.454L147.68 285.167L151.006 282.94L152.405 282.66L157.958 281.83L162.142 282.388L165.466 283.211L170.477 282.94H171.861L172.704 284.041L173.532 285.997L174.372 286.55H175.773L177.157 286.822L178.257 287.935L179.097 289.049V292.386L178.257 296.282L178.541 297.392L179.384 297.935L181.324 296.834L183.266 295.724H183.551L184.381 296.282L184.665 297.392L185.777 297.663L187.72 297.392L198.568 293.228H200.795L201.067 294.895L200.511 298.779V301.002L201.067 303.501V308.22L202.466 311.557L204.134 312.386L205.52 312.113L208.018 311.271L210.245 309.334L216.097 302.943L218.037 299.873L219.981 298.208L222.208 296.823L229.442 294.598L236.937 294.312L243.889 290.701L244.447 289.59L244.731 288.765H243.889L240.836 290.988L239.994 291.261L238.892 291.546L237.224 290.988L236.665 290.43L236.937 289.607L239.722 287.38L240.836 286.266L243.333 281.818L245.561 279.875L248.058 277.378L249.172 275.155L251.112 271.532L252.226 270.431L254.169 269.875L256.667 270.431L258.335 271.532L259.178 272.928L259.465 274.871V275.17L259.178 276.264L258.335 279.05L257.792 280.433L257.236 282.388L257.507 283.498L258.906 284.325L260.577 284.885L262.803 284.599L265.586 283.211L267.528 281.546L268.912 279.59L270.311 276.536L271.139 275.155L271.695 270.991L272.253 269.589L273.096 268.479L278.647 263.758L280.319 262.928H282.816L285.885 264.316L289.498 267.924L291.438 269.035L292.837 269.589L295.335 269.875L299.502 269.317L308.126 267.094H309.51L311.178 267.366H312.579L320.915 265.156L325.082 263.484L327.036 262.928L338.713 263.484L340.099 263.758L340.655 264.316V265.156L339.543 267.652L329.535 276.264L328.981 276.822L328.423 277.938L328.151 279.319L328.423 280.715L328.981 282.373L329.807 282.929L332.591 283.483L333.434 284.599V286.266L331.49 290.988L329.535 296.267L327.308 300.444L327.036 301.545L327.308 302.943L327.866 304.61L328.151 306.551V309.048L327.308 316.552V317.933L327.866 318.776H328.709L330.093 317.378L332.32 315.995L335.103 314.61L340.386 313.498L346.779 312.944L348.721 311.557L350.118 310.448L353.459 308.22L355.401 307.663L357.341 308.22L359.568 309.334L362.066 312.673L367.634 316.552L373.471 321.828L382.921 332.112L383.206 332.398H383.492L383.764 332.669H384.322L385.991 331.84L386.831 331.289L389.329 329.617L391.002 328.775L392.112 328.503H392.942L394.054 329.061L394.339 329.604L394.611 331.002L394.054 332.112L393.229 333.214L392.112 334.055L391.284 334.895L390.731 335.993L389.329 338.218L388.504 339.33L385.161 342.669L382.378 344.34L381.824 344.896V345.437L382.106 346.277L385.447 347.664L386.549 348.22L387.103 349.887L387.946 350.729L388.504 351.559L392.942 352.668L394.626 353.224L395.727 353.498L397.124 354.611L402.407 359.059L404.075 361.287L405.188 362.396L407.404 364.068L408.514 365.181L409.359 366.562L409.63 367.949L409.359 369.629L408.801 371.286L407.958 372.953V374.351L408.242 375.196L408.529 375.736L408.801 376.576L409.087 377.675L409.641 378.517L411.314 380.187V381.027L410.469 381.858L394.339 387.414L390.172 391.864L388.786 391.586L384.061 392.698H382.121L379.336 392.14L378.782 392.411L378.496 393.527V394.649L378.209 395.493L376.556 396.047H375.155L373.771 396.605L372.102 397.702L369.317 400.215L364.592 403.537L359.025 409.659L355.701 412.705L355.972 413.823L357.085 414.109L359.311 414.93V415.49L363.478 418.542L364.592 419.102L365.151 419.652L364.034 420.498L367.362 421.877L368.475 423.264L369.589 425.22L369.876 427.717L369.589 429.384L367.921 432.167L363.196 433.268L355.13 435.771L354.017 435.493L352.916 435.209L352.36 434.379V433.537L343.466 428.262L338.456 426.59L334.559 428.262L334.003 430.487L334.559 432.979L336.23 437.434L336.514 439.655L336.23 441.882L335.958 443.821L329.278 461.881L328.179 467.171L327.623 471.893L326.78 474.118L325.396 476.061L325.109 476.333L326.222 476.89L334.559 482.166L335.361 483.008L335.918 483.837L336.202 485.231V490.767L336.745 492.152L339.256 496.603L339.528 497.986V500.5L339.256 502.71L338.7 504.661L334.247 514.665L334.803 516.044L335.633 517.161L344.54 518.555L353.703 517.999L359.827 518.269L360.655 518.555L361.213 518.839L361.497 519.111V519.665L361.213 520.225L360.941 521.069L359.827 522.734L359.542 523.29V524.391L360.655 528.001L361.769 530.224L362.597 531.338L363.44 532.163L364.552 533.005L365.938 533.558H368.164L369.264 533.005L370.934 531.893L372.047 530.784L374.002 528.559L378.171 524.946L382.339 520.782L383.723 519.665L385.122 519.111L385.95 518.827L386.793 518.286L387.064 517.172V516.059L386.521 514.676L386.793 512.446L387.633 510.497L394.029 504.105L396.812 501.333L397.637 500.228L398.198 499.384L398.754 496.887L402.923 486.334L403.479 485.214L404.306 484.658L405.149 484.943L406.815 486.334L407.648 487.439L413.495 499.108L414.599 500.5L416.554 500.782H417.938L426.845 497.173L428.502 497.999L432.684 498.836H434.911L438.237 496.06L437.409 494.386L440.748 494.106L441.845 489.94L442.69 479.116L444.361 474.105L445.473 472.994L447.7 472.712L449.086 471.609L448.243 469.386L446.299 465.222L448.797 461.039L449.642 458.546L448.525 457.443L447.7 457.155L447.415 456.05L447.131 453.82L447.687 452.704L447.971 452.437L448.525 451.041L449.357 448.829L450.47 443.549L451.295 441.326L452.14 439.37L452.696 438.81L453.522 438.259L454.082 437.99L455.195 437.434H456.037L456.309 437.718L457.693 439.099L458.536 439.383L459.376 439.655L460.474 439.383L461.874 438.543L462.428 437.434L462.7 436.331L462.989 434.379L465.487 429.655L468.826 424.936L468.542 423.264L468.257 422.708L467.153 421.599V420.77L467.425 420.214L467.986 419.94L468.542 419.652L469.38 419.374L470.484 419.102L471.596 417.702L471.878 416.877V416.033L469.652 412.155L469.94 409.086L470.212 408.255L470.768 406.863L471.596 406.034L472.439 405.48L473.551 405.191L475.493 404.636L476.603 404.076L477.164 402.983L477.72 401.308L478.548 399.645L480.218 397.689L481.057 396.024L483.555 388.805L487.17 380.738L489.397 377.119L491.067 375.183L494.406 371.57L495.232 368.789V366.562L495.792 362.954L495.503 360.731L495.232 358.79L494.678 357.392L493.837 354.895L493.005 353.51L491.623 352.112L490.224 351.287L488.84 350.445L487.442 349.616L486.614 348.22L486.053 346.837L485.228 345.721L484.387 345.165L483.827 344.625L483.542 344.34V344.054L483.001 343.227L482.16 342.113L480.218 340.174L479.662 339.059L479.934 337.393L481.046 336.28L485.228 332.943L490.494 327.948L498.002 322.942L504.128 317.933L511.633 307.934L514.131 305.439L526.64 295.154L527.75 293.756L528.308 293.213L528.022 292.373L527.481 291.546L525.252 289.59L524.696 288.493L524.142 287.38V286.266L525.252 285.156L526.64 284.325L530.249 282.929L533.32 281.26L533.874 280.715H536.103L538.317 281.26L539.711 281.818L540.556 283.211L541.097 284.599L541.384 286.537V288.493L541.097 290.158L540.556 291.546L539.44 292.926L537.487 295.154L536.928 296.267L536.659 297.105L536.928 297.935L537.487 298.493H538.599L540.826 298.208L544.725 296.537L551.116 295.712L553.615 294.869L557.783 292.644L559.454 290.975L562.793 285.697L563.909 284.599L564.451 283.483L564.735 282.643L563.625 279.59L562.793 278.195L562.508 277.367L562.239 275.982V271.532L562.78 269.589L563.896 267.909L565.293 266.81L566.123 265.696L566.406 264.585L567.505 257.082L567.233 255.411L566.395 252.358V251.245L567.233 249.579L579.468 233.189L583.635 229.023L586.978 226.798L588.36 225.4L589.205 223.728L590.03 220.407L590.873 213.46L591.703 210.948L593.1 208.454L598.383 202.902L601.435 198.454L604.218 200.119V202.062L605.048 205.957V206.226L605.606 207.338L606.445 208.182L607.546 208.74H608.943L611.17 207.624L612.84 206.226L614.513 204.572L616.74 202.616L617.852 201.521L620.906 196.783L621.193 194.288V191.791L622.019 190.122L626.19 185.672L627.3 183.731L628.701 182.346L629.526 181.792L630.927 181.506L632.87 181.792L633.967 181.234L635.368 180.121L636.75 179.007L637.866 178.184L638.976 178.455H642.863L653.438 174.016L656.208 172.902L665.944 166.515L670.398 162.616L674.851 156.785L678.459 150.668L680.13 148.722L683.758 145.674L684.87 144.559L685.695 143.721L686.81 144.001L687.638 144.287L690.709 146.514L692.091 147.057L694.033 147.611H696.26L698.773 147.057L700.713 146.228L716.002 137.054L716.289 136.502L717.115 135.673L718.229 133.717L719.628 132.62L720.727 131.22L721.286 130.949L722.68 130.665H724.622L727.679 131.22L729.347 130.936L730.464 130.378L736.299 126.216L742.981 121.208L744.652 120.381L746.878 119.269L749.375 118.712L751.873 117.598L754.927 115.103L756.884 112.607L758.27 110.108L758.824 108.171L759.38 105.388L760.21 103.719L760.769 102.605L761.879 101.778L763.267 100.938L766.048 99.5508L767.72 99.2687L769.389 99.5508L771.615 100.654L774.4 102.877L777.739 104.833L780.507 105.376L800.821 97.5992H802.491L806.66 98.1571L807.486 97.8707L808.887 97.5992H811.099L814.437 98.9822L814.994 98.6979L815.823 98.1422L816.11 97.3171L816.664 95.9298L817.492 95.0919L818.05 94.534L820.548 93.9783L821.107 93.6918L821.661 93.4204L821.945 92.8646L822.217 92.3067L822.775 90.6416L823.333 89.8101L824.444 88.6964L826.942 87.5871L827.5 87.3028L827.787 86.7449L828.058 85.9177L828.341 85.0755V81.198L828.058 80.0843L827.5 78.6992L825.002 75.6319L824.172 75.089L822.775 74.8025H820.835L819.718 75.089L819.162 75.3604L818.621 75.6447L818.065 76.2047L813.883 81.198L813.051 82.0359L812.211 81.7495L811.939 80.6551L812.497 78.1584V76.4869L812.211 75.3732L811.37 74.8175L811.099 73.9796V73.1502L813.325 68.4263L812.767 65.9296L812.211 60.0856L811.099 58.412L810.269 57.5869L806.932 55.9175L805.815 55.0753L803.873 53.1387L802.491 52.2965L801.375 51.465L800.534 50.3535L800.265 49.242L799.148 41.1963L798.594 39.7963L797.766 38.1311L799.148 34.8051L802.478 30.0705L813.883 17.5745L818.891 10.0697L820.563 6.17509L822.501 3.12272L823.346 1.45542V0.61324L822.23 0.0703125L789.97 0.341776L784.133 2.0112L773.284 8.68881L770.788 10.6275L767.462 12.5663L760.781 14.7936L749.661 16.7302L746.335 17.0166L744.38 16.4587L742.438 16.1766L741.054 15.3493L737.428 13.4085H736.312L734.93 13.9642L728.806 17.5745L689.877 30.9106L683.062 34.2194L674.866 38.1974L670.423 40.3542Z" stroke="#797979" stroke-width="2.50498" mask="url(#path-1-inside-1_539_32917)"/>
<defs>
<filter id="filter0_i_539_32917" x="0" y="0.0703125" width="828.341" height="537.488" filterUnits="userSpaceOnUse" color-interpolation-filters="sRGB">
<feFlood flood-opacity="0" result="BackgroundImageFix"/>
<feBlend mode="normal" in="SourceGraphic" in2="BackgroundImageFix" result="shape"/>
<feColorMatrix in="SourceAlpha" type="matrix" values="0 0 0 0 0 0 0 0 0 0 0 0 0 0 0 0 0 0 127 0" result="hardAlpha"/>
<feOffset dy="4"/>
<feGaussianBlur stdDeviation="2"/>
<feComposite in2="hardAlpha" operator="arithmetic" k2="-1" k3="1"/>
<feColorMatrix type="matrix" values="0 0 0 0 0 0 0 0 0 0 0 0 0 0 0 0 0 0 0.25 0"/>
<feBlend mode="normal" in2="shape" result="effect1_innerShadow_539_32917"/>
</filter>
</defs>
</svg>
