<svg width="227" height="256" viewBox="0 0 227 256" fill="none" xmlns="http://www.w3.org/2000/svg">
<mask id="path-1-inside-1_539_32918" fill="white">
<path d="M211.548 32.2433L213.771 33.3565L218.205 34.1985L215.71 36.6942L212.663 41.4143L205.164 61.9637L205.451 67.5237L208.769 71.9617L213.216 73.6263L218.489 74.4682L223.207 76.6925L225.43 80.5708L226.545 86.417L225.701 92.2526L223.207 96.415L221.27 99.1971L218.775 111.146L216.823 114.751L211.561 121.695L210.721 125.584V128.084L210.168 130.58L209.338 133.071L207.674 135.016L206.004 136.127H202.655L200.718 136.411L199.62 138.64L196.839 148.08L195.443 151.401L189.617 155.025L187.946 156.403L187.122 158.345L185.17 165.574L183.229 166.685L181.847 167.794L181.005 169.467L180.452 175.014L179.338 176.683L177.672 177.794L176.288 179.463V180.307L176.843 182.531L176.559 183.628L175.735 184.739L172.954 186.679L172.112 187.79L171.288 190.019L171.002 194.735L170.445 196.963L164.061 211.686L162.395 216.968L162.124 221.957L161.28 224.184L160.172 225.848L159.343 227.248L158.786 232.519L158.23 234.464L152.402 242.235L151.008 245.017V250.857L150.736 253.626L148.784 255.569H146.561L144.62 253.626L142.681 250.857L140.744 249.18L133.245 245.304L130.185 244.746L125.738 243.628L122.129 242.25L118.24 241.408L107.976 242.808L105.197 241.408L100.198 234.464L96.0329 233.079L89.376 232.239L82.9924 232.519L79.9277 234.464L79.6565 235.577L79.1033 236.684L78.5459 237.515L77.7044 238.359L76.3227 238.63L75.7653 237.801L74.9387 236.968L74.0994 236.417L71.8762 237.239L67.9977 239.464L65.2214 239.752L62.7119 239.464L61.8833 238.088L61.328 236.417L60.5037 234.464L56.3284 230.295L54.9423 228.632L51.3394 223.079L48.83 221.688L45.2228 222.795L43.841 225.023L42.7283 228.075V228.919H41.6177L36.9 231.414H35.8001L35.5161 230.857L35.8001 230.023L36.3426 228.919V226.961L35.8001 225.863L34.4056 224.754L33.8481 224.47H33.0216L32.4685 225.308L31.9111 226.406L31.0696 226.961L29.974 227.803L27.7508 228.361H25.7987L25.5275 227.803V226.69L25.2413 226.406L24.1286 225.575L22.7468 225.295H21.9182L21.081 225.575L19.6821 226.961L18.3003 227.791L17.1876 227.519L16.3633 226.961L15.5196 226.134L14.4219 225.023L12.7411 223.912L2.75252 220.575L1.36648 220.017L0.811183 219.461L0.529297 218.63L2.75252 216.406L3.02378 215.85L3.30566 214.756V211.686L3.86096 208.352L4.41835 206.698V205.856L4.70454 204.19L5.52888 201.694L5.81298 200.854L5.25768 197.797V195.848L5.81298 193.91L6.92782 192.525L9.13611 190.301L9.4223 188.903L8.86485 186.694L6.37037 185.023L5.81298 183.074L6.37037 180.021L5.81298 178.636L4.98642 176.95L8.30746 176.683L9.4223 172.518L10.2595 161.683L11.9274 156.674L13.0402 155.567L15.2484 155.296L16.6452 154.181L15.8058 151.956L13.8688 147.794L16.3633 143.627L17.2005 141.136L16.092 140.016L15.2484 139.732L14.9772 138.623L14.6931 136.411L15.2484 135.296L15.5346 135.016L16.0771 133.633L16.9164 131.409L18.0291 126.127L18.8578 123.907L19.6949 121.967L20.2523 121.407L21.081 120.855L21.6341 120.573L22.7468 120.016H23.5755L23.8573 120.302L25.2413 121.695L26.0806 121.967L26.9221 122.251L28.022 121.967L29.4166 121.14L29.9591 120.031L30.2452 118.911L30.5271 116.977L33.0216 112.255L36.3576 107.537L36.0714 105.866L35.8001 105.31L34.6917 104.201V103.36L34.9629 102.802L35.5161 102.53L36.0714 102.246L36.9 101.977L38.0106 101.689L39.1233 100.306L39.4094 99.4684V98.6372L37.1862 94.744L37.4574 91.6927L37.7393 90.8487L38.2946 89.4705L39.1233 88.6286L39.9626 88.0709L41.0753 87.7995L43.0124 87.2439L44.1272 86.6841L44.6697 85.5794L45.2228 83.9042L46.0642 82.2396L47.7301 80.2994L48.5737 78.6349L51.0682 71.404L54.6711 63.3548L56.8943 59.7372L58.5623 57.8013L61.8982 54.1773L63.0088 55.2884L64.1065 56.3975L64.9502 56.9573L66.0458 57.2436L66.8872 57.5149L67.7265 57.8013H68.269L68.553 58.0855L69.6679 59.1774L70.505 60.0214L71.6049 60.5791L74.6675 61.1219L76.0515 61.6774L77.162 62.5171L77.9885 63.6262L79.6565 66.3954L81.0553 67.2373L82.1509 67.5237L82.9924 66.6817L83.5498 65.5706L87.9963 59.7372L91.8705 52.5063V50.5833L94.3649 47.8033L97.703 45.5768L108.804 34.1985L109.362 32.801V31.9719L109.076 30.8608L108.533 29.7497L107.692 28.6492L106.596 28.0915L102.421 26.9825H102.135V26.6983L102.421 26.412L103.258 24.4718L103.529 23.3735V22.5317L105.21 21.7047L107.976 20.8671L124.352 19.1961L130.467 20.0252L132.961 19.7538L137.126 19.4675L138.791 20.3094L140.186 21.1363L142.952 23.3628L144.62 24.2026L146.019 24.7432H147.956L149.893 24.4718L153.231 23.9163L154.897 24.2026L156.007 24.7432L156.563 25.8565L157.391 26.6983L157.677 26.9697H157.959L159.057 27.2539L160.738 27.5403L166.284 26.6983L176.006 25.3137L181.277 23.0915L184.042 21.147L185.723 19.4675L188.502 15.3029L190.159 13.9225L195.714 10.8541L197.382 9.75586L207.101 1.41383L207.945 0.871094L208.216 1.14249L208.488 2.53993L208.216 3.63825L207.945 5.57842V10.0272L206.83 13.6512L205.722 16.147L203.499 23.3735L203.212 25.0274L204.052 26.427L205.436 28.0915L211.548 32.2433Z"/>
</mask>
<path d="M211.548 32.2433L213.771 33.3565L218.205 34.1985L215.71 36.6942L212.663 41.4143L205.164 61.9637L205.451 67.5237L208.769 71.9617L213.216 73.6263L218.489 74.4682L223.207 76.6925L225.43 80.5708L226.545 86.417L225.701 92.2526L223.207 96.415L221.27 99.1971L218.775 111.146L216.823 114.751L211.561 121.695L210.721 125.584V128.084L210.168 130.58L209.338 133.071L207.674 135.016L206.004 136.127H202.655L200.718 136.411L199.62 138.64L196.839 148.08L195.443 151.401L189.617 155.025L187.946 156.403L187.122 158.345L185.17 165.574L183.229 166.685L181.847 167.794L181.005 169.467L180.452 175.014L179.338 176.683L177.672 177.794L176.288 179.463V180.307L176.843 182.531L176.559 183.628L175.735 184.739L172.954 186.679L172.112 187.79L171.288 190.019L171.002 194.735L170.445 196.963L164.061 211.686L162.395 216.968L162.124 221.957L161.28 224.184L160.172 225.848L159.343 227.248L158.786 232.519L158.23 234.464L152.402 242.235L151.008 245.017V250.857L150.736 253.626L148.784 255.569H146.561L144.62 253.626L142.681 250.857L140.744 249.18L133.245 245.304L130.185 244.746L125.738 243.628L122.129 242.25L118.24 241.408L107.976 242.808L105.197 241.408L100.198 234.464L96.0329 233.079L89.376 232.239L82.9924 232.519L79.9277 234.464L79.6565 235.577L79.1033 236.684L78.5459 237.515L77.7044 238.359L76.3227 238.63L75.7653 237.801L74.9387 236.968L74.0994 236.417L71.8762 237.239L67.9977 239.464L65.2214 239.752L62.7119 239.464L61.8833 238.088L61.328 236.417L60.5037 234.464L56.3284 230.295L54.9423 228.632L51.3394 223.079L48.83 221.688L45.2228 222.795L43.841 225.023L42.7283 228.075V228.919H41.6177L36.9 231.414H35.8001L35.5161 230.857L35.8001 230.023L36.3426 228.919V226.961L35.8001 225.863L34.4056 224.754L33.8481 224.47H33.0216L32.4685 225.308L31.9111 226.406L31.0696 226.961L29.974 227.803L27.7508 228.361H25.7987L25.5275 227.803V226.69L25.2413 226.406L24.1286 225.575L22.7468 225.295H21.9182L21.081 225.575L19.6821 226.961L18.3003 227.791L17.1876 227.519L16.3633 226.961L15.5196 226.134L14.4219 225.023L12.7411 223.912L2.75252 220.575L1.36648 220.017L0.811183 219.461L0.529297 218.63L2.75252 216.406L3.02378 215.85L3.30566 214.756V211.686L3.86096 208.352L4.41835 206.698V205.856L4.70454 204.19L5.52888 201.694L5.81298 200.854L5.25768 197.797V195.848L5.81298 193.91L6.92782 192.525L9.13611 190.301L9.4223 188.903L8.86485 186.694L6.37037 185.023L5.81298 183.074L6.37037 180.021L5.81298 178.636L4.98642 176.95L8.30746 176.683L9.4223 172.518L10.2595 161.683L11.9274 156.674L13.0402 155.567L15.2484 155.296L16.6452 154.181L15.8058 151.956L13.8688 147.794L16.3633 143.627L17.2005 141.136L16.092 140.016L15.2484 139.732L14.9772 138.623L14.6931 136.411L15.2484 135.296L15.5346 135.016L16.0771 133.633L16.9164 131.409L18.0291 126.127L18.8578 123.907L19.6949 121.967L20.2523 121.407L21.081 120.855L21.6341 120.573L22.7468 120.016H23.5755L23.8573 120.302L25.2413 121.695L26.0806 121.967L26.9221 122.251L28.022 121.967L29.4166 121.14L29.9591 120.031L30.2452 118.911L30.5271 116.977L33.0216 112.255L36.3576 107.537L36.0714 105.866L35.8001 105.31L34.6917 104.201V103.36L34.9629 102.802L35.5161 102.53L36.0714 102.246L36.9 101.977L38.0106 101.689L39.1233 100.306L39.4094 99.4684V98.6372L37.1862 94.744L37.4574 91.6927L37.7393 90.8487L38.2946 89.4705L39.1233 88.6286L39.9626 88.0709L41.0753 87.7995L43.0124 87.2439L44.1272 86.6841L44.6697 85.5794L45.2228 83.9042L46.0642 82.2396L47.7301 80.2994L48.5737 78.6349L51.0682 71.404L54.6711 63.3548L56.8943 59.7372L58.5623 57.8013L61.8982 54.1773L63.0088 55.2884L64.1065 56.3975L64.9502 56.9573L66.0458 57.2436L66.8872 57.5149L67.7265 57.8013H68.269L68.553 58.0855L69.6679 59.1774L70.505 60.0214L71.6049 60.5791L74.6675 61.1219L76.0515 61.6774L77.162 62.5171L77.9885 63.6262L79.6565 66.3954L81.0553 67.2373L82.1509 67.5237L82.9924 66.6817L83.5498 65.5706L87.9963 59.7372L91.8705 52.5063V50.5833L94.3649 47.8033L97.703 45.5768L108.804 34.1985L109.362 32.801V31.9719L109.076 30.8608L108.533 29.7497L107.692 28.6492L106.596 28.0915L102.421 26.9825H102.135V26.6983L102.421 26.412L103.258 24.4718L103.529 23.3735V22.5317L105.21 21.7047L107.976 20.8671L124.352 19.1961L130.467 20.0252L132.961 19.7538L137.126 19.4675L138.791 20.3094L140.186 21.1363L142.952 23.3628L144.62 24.2026L146.019 24.7432H147.956L149.893 24.4718L153.231 23.9163L154.897 24.2026L156.007 24.7432L156.563 25.8565L157.391 26.6983L157.677 26.9697H157.959L159.057 27.2539L160.738 27.5403L166.284 26.6983L176.006 25.3137L181.277 23.0915L184.042 21.147L185.723 19.4675L188.502 15.3029L190.159 13.9225L195.714 10.8541L197.382 9.75586L207.101 1.41383L207.945 0.871094L208.216 1.14249L208.488 2.53993L208.216 3.63825L207.945 5.57842V10.0272L206.83 13.6512L205.722 16.147L203.499 23.3735L203.212 25.0274L204.052 26.427L205.436 28.0915L211.548 32.2433Z" fill="#E1E2E4" stroke="black" stroke-width="2.50498" mask="url(#path-1-inside-1_539_32918)"/>
</svg>
