<svg width="393" height="152" viewBox="0 0 393 152" fill="none" xmlns="http://www.w3.org/2000/svg">
<mask id="path-1-inside-1_539_32920" fill="white">
<path d="M346.072 141.877L340.517 148.019L337.2 151.087L336.643 148.304L333.58 146.342L329.707 144.954L327.756 142.162L326.644 141.334L319.707 140.487L317.5 139.925L315.834 139.102L314.154 137.984L312.5 136.597L310.549 134.079L309.725 133.245L308.613 132.955L306.675 133.517L306.12 133.245L305.282 132.683H303.342L302.232 132.402L301.406 131.574L300.296 129.61L299.184 128.78L295.865 127.382L291.419 126.547L287.262 126.258L283.93 127.382L281.437 128.209L274.215 127.109L260.342 128.78L253.962 128.222L252.022 128.49L251.184 129.052L250.343 130.727L249.519 131.574L248.407 131.287L246.74 130.455H245.075L244.518 132.683L243.135 134.079L240.089 134.364H236.756L234.534 133.802L232.596 132.132L231.755 130.455L230.645 129.337H228.423L227.326 129.899L225.105 131.574L223.709 131.847L222.326 132.132L219.551 132.972H218.439L213.167 132.411L194.027 126.833L187.643 123.772H186.262L183.486 125.162L181.819 125.441L174.598 125.162L153.789 128.237L149.629 129.906L133.82 131.859L130.216 131.574L128.265 130.468L126.884 129.355L125.215 128.51L122.993 128.237L122.44 128.51L121.057 129.906L120.219 130.468H119.107L114.121 129.627L111.342 128.237L109.948 127.95H108.01L103.012 129.052L92.2016 128.222L79.1674 131.014L74.4378 130.727L64.4557 126.547L43.928 122.368L15.0723 110.377L10.0737 110.665L5.63012 112.608L3.40832 112.046L2.02742 109.545L0.915454 104.523L0.358398 99.7876L1.19931 94.4885L2.02742 90.8663L5.35907 89.4681L10.9146 87.791L12.0095 86.9611L12.5666 86.1182L13.1215 84.4412L13.6786 82.4983L13.3926 78.6059L13.6786 76.6436L14.5024 74.9687L16.7392 73.8514L20.615 74.1388L22.8368 73.8514L24.5016 73.0215L26.1685 72.1787L26.9945 71.0742L27.2805 70.2293L27.5643 68.8439V67.9989L27.0094 67.169L26.1685 66.324L22.8496 63.2595L21.7377 62.1464L21.1828 60.7568L20.3568 59.3542L19.5159 55.7342V52.6697L19.8019 50.999L20.6278 49.5922L22.2947 47.0895L22.8496 45.9722L23.4046 44.8721V43.4696L23.6884 40.6795L24.5165 38.7301L25.6264 37.3426L29.7861 33.4373L30.6249 32.32L31.182 30.3728L32.279 28.9831L34.5008 27.0401L38.6606 23.9627L41.9922 20.615L42.5471 19.7829L44.7689 18.6635L55.3102 16.7206L63.3565 16.4332L65.5783 15.8777L69.1832 15.3159L70.022 14.7583L70.8501 14.4859L73.6268 12.2556L75.5647 11.1382L76.9584 10.8509H78.6253L85.0069 11.6937H87.2287L88.8956 11.4106H90.0054L91.3885 11.6937L94.1652 13.1005L98.0539 15.8777L98.596 16.7206L98.8798 18.3912L98.596 19.7829L97.213 22.0133L96.3742 23.9627L96.1031 24.8055V25.3609H97.213L102.47 21.7281L104.149 20.3427L104.692 19.5106L105.532 17.8207L106.356 17.2781H107.468L108.58 18.108L109.135 19.2254L109.406 20.3427V21.4557L109.961 22.2857L110.802 22.5751L113.85 21.1683L117.184 20.0703L124.959 18.3804H126.056L126.897 18.6635L127.166 19.5106V22.0133L127.452 23.1306L128.293 23.403L129.674 23.1306L133.007 20.896L134.388 20.615L139.944 19.7701L144.101 20.3277L147.435 21.1683L152.421 20.8853H153.817L154.643 22.0004L155.481 23.9455L156.31 24.5052H157.703L159.086 24.7905L160.196 25.9078L161.024 27.0122V30.3599L160.196 34.2672L160.482 35.3803L161.308 35.94L163.246 34.8248L165.197 33.7097H165.468L166.307 34.2672L166.578 35.3803L167.69 35.6677L169.626 35.3803L180.451 31.2027H182.672L182.944 32.8776L182.401 36.7721V39.0024L182.944 41.5073V46.2446L184.339 49.5922L186.006 50.4393L187.387 50.1541L189.88 49.3199L192.102 47.3619L197.941 40.9518L199.879 37.8851L201.815 36.2145L204.037 34.8099L211.259 32.5795L218.751 32.305L225.687 28.6722L226.242 27.5548L226.513 26.7249H225.687L222.624 28.9574L221.798 29.2447L220.689 29.5171L219.022 28.9574L218.467 28.4105L218.751 27.5677L221.515 25.3352L222.624 24.2179L225.117 19.7551L227.339 17.8078L229.832 15.3052L230.944 13.0726L232.882 9.4505L233.992 8.33536L235.942 7.77343L238.435 8.33536L240.102 9.4505L240.928 10.838L241.212 12.7853V13.0726L240.928 14.1857L240.102 16.9757L239.547 18.3654L238.99 20.3127L239.276 21.4278L240.657 22.2749L242.324 22.8197L244.546 22.5473L247.323 21.1426L249.261 19.4698L250.641 17.5205L252.037 14.458L252.863 13.0555L253.42 8.88007L253.975 7.48822L254.814 6.37307L260.357 1.63788L262.022 0.792969H264.514L267.577 2.19549L271.18 5.81547L273.118 6.93068L274.514 7.48822L277.006 7.76276L281.166 7.203L289.767 4.97265H291.163L292.83 5.25793H294.211L302.543 3.02326L306.703 1.35051L308.641 0.792969L320.292 1.35051L321.673 1.63788L322.228 2.19549V3.02326L321.131 5.53025L311.134 14.1728L310.577 14.7326L310.022 15.8499L309.751 17.2352L310.022 18.6399L310.577 20.3127L311.418 20.8703L314.194 21.4278L315.02 22.5323V24.205L313.085 28.9445L311.147 34.2523L308.925 38.4298L308.641 39.5364L308.925 40.9347L309.48 42.6117L309.751 44.5568V47.0638L308.925 54.5912V55.9916L309.48 56.8237H310.306L311.689 55.434L313.911 54.0336L316.687 52.6418L321.957 51.5266L328.338 50.9712L330.289 49.5815L331.672 48.4642L333.337 47.349L335.004 46.2446L336.942 45.687L338.88 46.2446L341.102 47.349L343.607 50.6988L349.148 54.604L354.975 59.8989L364.417 70.2035L364.688 70.4909H364.972L365.243 70.7632H365.795L367.475 69.9312L368.305 69.3736L370.798 67.7008L372.461 66.8687L373.575 66.5814H374.412L375.513 67.1433L375.797 67.7008L376.081 69.0862L375.526 70.2035L374.683 71.3209L373.575 72.1508L372.749 72.9936L372.19 74.098L370.798 76.3284L369.968 77.4478L366.638 80.7955L363.862 82.4704L363.32 83.0258V83.5705L363.591 84.4176L366.922 85.8201L368.034 86.3628L368.589 88.0376L369.415 88.8826L369.968 89.7104L374.412 90.8277L376.081 91.3874L377.193 91.6726L378.574 92.7899L383.841 97.2377L385.51 99.4724L386.622 100.588L388.844 102.265L389.954 103.38L390.777 104.767L391.066 106.17L390.777 107.84L390.225 109.522L389.399 111.192V112.582L389.67 113.427L389.954 113.97L390.225 114.81L390.508 115.932L391.066 116.764L392.73 118.435V119.279L391.892 120.109L375.812 125.69L371.637 130.159L370.256 129.871L365.539 130.987H363.604L360.825 130.431L360.27 130.714L359.986 131.829V132.932L359.715 133.777L358.048 134.336H356.654L355.271 134.879L353.602 135.992L350.828 138.497L346.072 141.877Z"/>
</mask>
<path d="M346.072 141.877L340.517 148.019L337.2 151.087L336.643 148.304L333.58 146.342L329.707 144.954L327.756 142.162L326.644 141.334L319.707 140.487L317.5 139.925L315.834 139.102L314.154 137.984L312.5 136.597L310.549 134.079L309.725 133.245L308.613 132.955L306.675 133.517L306.12 133.245L305.282 132.683H303.342L302.232 132.402L301.406 131.574L300.296 129.61L299.184 128.78L295.865 127.382L291.419 126.547L287.262 126.258L283.93 127.382L281.437 128.209L274.215 127.109L260.342 128.78L253.962 128.222L252.022 128.49L251.184 129.052L250.343 130.727L249.519 131.574L248.407 131.287L246.74 130.455H245.075L244.518 132.683L243.135 134.079L240.089 134.364H236.756L234.534 133.802L232.596 132.132L231.755 130.455L230.645 129.337H228.423L227.326 129.899L225.105 131.574L223.709 131.847L222.326 132.132L219.551 132.972H218.439L213.167 132.411L194.027 126.833L187.643 123.772H186.262L183.486 125.162L181.819 125.441L174.598 125.162L153.789 128.237L149.629 129.906L133.82 131.859L130.216 131.574L128.265 130.468L126.884 129.355L125.215 128.51L122.993 128.237L122.44 128.51L121.057 129.906L120.219 130.468H119.107L114.121 129.627L111.342 128.237L109.948 127.95H108.01L103.012 129.052L92.2016 128.222L79.1674 131.014L74.4378 130.727L64.4557 126.547L43.928 122.368L15.0723 110.377L10.0737 110.665L5.63012 112.608L3.40832 112.046L2.02742 109.545L0.915454 104.523L0.358398 99.7876L1.19931 94.4885L2.02742 90.8663L5.35907 89.4681L10.9146 87.791L12.0095 86.9611L12.5666 86.1182L13.1215 84.4412L13.6786 82.4983L13.3926 78.6059L13.6786 76.6436L14.5024 74.9687L16.7392 73.8514L20.615 74.1388L22.8368 73.8514L24.5016 73.0215L26.1685 72.1787L26.9945 71.0742L27.2805 70.2293L27.5643 68.8439V67.9989L27.0094 67.169L26.1685 66.324L22.8496 63.2595L21.7377 62.1464L21.1828 60.7568L20.3568 59.3542L19.5159 55.7342V52.6697L19.8019 50.999L20.6278 49.5922L22.2947 47.0895L22.8496 45.9722L23.4046 44.8721V43.4696L23.6884 40.6795L24.5165 38.7301L25.6264 37.3426L29.7861 33.4373L30.6249 32.32L31.182 30.3728L32.279 28.9831L34.5008 27.0401L38.6606 23.9627L41.9922 20.615L42.5471 19.7829L44.7689 18.6635L55.3102 16.7206L63.3565 16.4332L65.5783 15.8777L69.1832 15.3159L70.022 14.7583L70.8501 14.4859L73.6268 12.2556L75.5647 11.1382L76.9584 10.8509H78.6253L85.0069 11.6937H87.2287L88.8956 11.4106H90.0054L91.3885 11.6937L94.1652 13.1005L98.0539 15.8777L98.596 16.7206L98.8798 18.3912L98.596 19.7829L97.213 22.0133L96.3742 23.9627L96.1031 24.8055V25.3609H97.213L102.47 21.7281L104.149 20.3427L104.692 19.5106L105.532 17.8207L106.356 17.2781H107.468L108.58 18.108L109.135 19.2254L109.406 20.3427V21.4557L109.961 22.2857L110.802 22.5751L113.85 21.1683L117.184 20.0703L124.959 18.3804H126.056L126.897 18.6635L127.166 19.5106V22.0133L127.452 23.1306L128.293 23.403L129.674 23.1306L133.007 20.896L134.388 20.615L139.944 19.7701L144.101 20.3277L147.435 21.1683L152.421 20.8853H153.817L154.643 22.0004L155.481 23.9455L156.31 24.5052H157.703L159.086 24.7905L160.196 25.9078L161.024 27.0122V30.3599L160.196 34.2672L160.482 35.3803L161.308 35.94L163.246 34.8248L165.197 33.7097H165.468L166.307 34.2672L166.578 35.3803L167.69 35.6677L169.626 35.3803L180.451 31.2027H182.672L182.944 32.8776L182.401 36.7721V39.0024L182.944 41.5073V46.2446L184.339 49.5922L186.006 50.4393L187.387 50.1541L189.88 49.3199L192.102 47.3619L197.941 40.9518L199.879 37.8851L201.815 36.2145L204.037 34.8099L211.259 32.5795L218.751 32.305L225.687 28.6722L226.242 27.5548L226.513 26.7249H225.687L222.624 28.9574L221.798 29.2447L220.689 29.5171L219.022 28.9574L218.467 28.4105L218.751 27.5677L221.515 25.3352L222.624 24.2179L225.117 19.7551L227.339 17.8078L229.832 15.3052L230.944 13.0726L232.882 9.4505L233.992 8.33536L235.942 7.77343L238.435 8.33536L240.102 9.4505L240.928 10.838L241.212 12.7853V13.0726L240.928 14.1857L240.102 16.9757L239.547 18.3654L238.99 20.3127L239.276 21.4278L240.657 22.2749L242.324 22.8197L244.546 22.5473L247.323 21.1426L249.261 19.4698L250.641 17.5205L252.037 14.458L252.863 13.0555L253.42 8.88007L253.975 7.48822L254.814 6.37307L260.357 1.63788L262.022 0.792969H264.514L267.577 2.19549L271.18 5.81547L273.118 6.93068L274.514 7.48822L277.006 7.76276L281.166 7.203L289.767 4.97265H291.163L292.83 5.25793H294.211L302.543 3.02326L306.703 1.35051L308.641 0.792969L320.292 1.35051L321.673 1.63788L322.228 2.19549V3.02326L321.131 5.53025L311.134 14.1728L310.577 14.7326L310.022 15.8499L309.751 17.2352L310.022 18.6399L310.577 20.3127L311.418 20.8703L314.194 21.4278L315.02 22.5323V24.205L313.085 28.9445L311.147 34.2523L308.925 38.4298L308.641 39.5364L308.925 40.9347L309.48 42.6117L309.751 44.5568V47.0638L308.925 54.5912V55.9916L309.48 56.8237H310.306L311.689 55.434L313.911 54.0336L316.687 52.6418L321.957 51.5266L328.338 50.9712L330.289 49.5815L331.672 48.4642L333.337 47.349L335.004 46.2446L336.942 45.687L338.88 46.2446L341.102 47.349L343.607 50.6988L349.148 54.604L354.975 59.8989L364.417 70.2035L364.688 70.4909H364.972L365.243 70.7632H365.795L367.475 69.9312L368.305 69.3736L370.798 67.7008L372.461 66.8687L373.575 66.5814H374.412L375.513 67.1433L375.797 67.7008L376.081 69.0862L375.526 70.2035L374.683 71.3209L373.575 72.1508L372.749 72.9936L372.19 74.098L370.798 76.3284L369.968 77.4478L366.638 80.7955L363.862 82.4704L363.32 83.0258V83.5705L363.591 84.4176L366.922 85.8201L368.034 86.3628L368.589 88.0376L369.415 88.8826L369.968 89.7104L374.412 90.8277L376.081 91.3874L377.193 91.6726L378.574 92.7899L383.841 97.2377L385.51 99.4724L386.622 100.588L388.844 102.265L389.954 103.38L390.777 104.767L391.066 106.17L390.777 107.84L390.225 109.522L389.399 111.192V112.582L389.67 113.427L389.954 113.97L390.225 114.81L390.508 115.932L391.066 116.764L392.73 118.435V119.279L391.892 120.109L375.812 125.69L371.637 130.159L370.256 129.871L365.539 130.987H363.604L360.825 130.431L360.27 130.714L359.986 131.829V132.932L359.715 133.777L358.048 134.336H356.654L355.271 134.879L353.602 135.992L350.828 138.497L346.072 141.877Z" fill="#E1E2E4" stroke="black" stroke-width="2.50498" mask="url(#path-1-inside-1_539_32920)"/>
</svg>
