<svg width="155" height="349" viewBox="0 0 155 349" fill="none" xmlns="http://www.w3.org/2000/svg">
<mask id="path-1-inside-1_539_32922" fill="">
<path d="M131.436 64.4137L136.151 61.9039H137.258L136.974 64.6852L137.258 67.4644L138.086 69.9571L139.196 72.1869L141.973 76.6337L142.816 78.0254L143.64 78.5812L144.195 79.6908L144.752 81.9184L144.466 86.9103L146.687 102.762L150.847 105.531L151.688 106.927L153.353 109.424L153.91 111.094L154.181 115.547L150.023 142.223V146.114L150.86 154.169V156.946L150.576 158.06L147.801 161.673L146.973 163.894V166.391L147.515 172.24L146.416 181.414V183.622L146.687 185.305V186.968L141.433 197.807L139.48 200.308L136.703 202.529L133.387 204.199H130.051L127.274 201.969L125.607 199.477L123.386 197.535L120.893 196.98L117.845 198.091L116.178 200.593L115.894 204.199L116.449 208.096L117.563 210.863L120.327 215.865L121.164 218.651L120.88 221.152L118.942 224.218L114.228 229.49L113.12 232.818L112.563 232.547L108.405 236.425L107.291 247.27L107.577 250.321L108.687 252.822L111.451 257.825L112.292 260.611L112.006 263.663L110.627 268.944L110.909 272.285L112.292 276.736L113.402 278.958L117.845 283.969L119.514 289.516L120.624 305.905V307.31L120.067 308.975L118.957 309.518L117.563 309.802L114.8 310.916H114.242L113.956 311.201V312.866L116.462 317.039L113.402 318.149L111.464 317.308L109.799 315.923L107.291 315.083L103.972 314.529H102.59L101.198 315.083L100.912 315.923L101.198 317.022L100.912 326.196L101.198 327.305L98.9762 328.425L97.3072 328.697L96.1974 329.802L93.7047 334.253L93.4187 336.198L93.9757 338.152L94.8144 339.824L95.1004 340.645L95.3694 341.765V342.593L95.1004 343.698V343.987L94.8144 344.258L93.7047 344.814H92.8786L92.3216 344.542L91.4829 343.698L89.8182 341.201L87.5964 340.092L85.6563 340.645L84.8176 343.715L83.4346 347.593L82.0538 348.998L80.6601 347.593L80.1031 343.715L79.006 339.553L76.7693 336.479L68.1811 328.697L59.8512 322.583L56.8013 321.749L55.4183 322.583L55.1366 324.528L55.6894 328.425L55.4077 329.802L54.8506 330.091H54.2936L54.0225 329.802L53.1859 332.592V334.529L53.4676 336.479V338.424L52.6289 340.363L51.2459 341.201H49.579L47.9143 341.765L46.5207 343.698L45.6926 344.53L44.8517 345.09L43.7568 345.643L42.9138 346.199L42.6299 344.814L42.3589 343.698L40.6771 334.529L37.6315 325.355L39.2984 323.97H41.2362L42.6299 323.125L42.9138 319.79L35.4226 274.489L35.1409 272.268L33.4718 267.813L32.9191 265.592L33.2008 257.541L32.3621 246.969L31.8071 244.748L30.4263 242.806L26.8045 239.749L25.4258 237.528L24.5977 233.361L23.204 222.79L21.5371 220.297L17.0936 218.621L14.6008 215.014L13.7749 210.296V200.864L10.4412 181.125L10.7271 175.853L11.2821 173.626L13.491 168.905L14.3319 166.408V165.008L13.7749 163.623L12.934 161.402V160.01L13.2199 157.235V156.119L12.6629 155.279L10.9982 153.893L10.4561 153.049L10.1701 152.228L10.4561 150.287L10.1701 149.171L9.33135 148.061L7.66449 146.385L7.10963 145.28L6.5547 143.339L5.72661 136.669L0.728182 120.823L0.444336 116.1L1.84018 110.266L1.55419 108.039L2.66612 105.542L1.84018 97.7663L2.66612 94.9807L3.22098 93.8711V93.0309L2.66612 92.2058L2.94997 91.3613L3.22098 90.5297L3.77591 89.1379L4.0619 88.5799L5.17384 87.7548L5.44277 87.4661L5.99769 87.1946L6.28362 86.9103H6.83855L7.10963 87.1946L7.66449 87.4661V87.7548L8.21942 88.0327L8.50541 88.3085L9.06034 88.0327L9.33135 87.4832L9.61735 86.6388V81.6319L8.77649 80.2466V74.4124L9.06034 73.8587L10.7271 69.6857L11.011 67.4644V66.9107L10.7271 66.0662L9.89904 64.4009L9.61735 63.8429L9.33135 63.0091V58.8467L10.4412 53.8399L10.7271 52.7261L10.1701 40.7862V39.6724L9.61735 38.8301L9.33135 38.0027L8.50541 37.4469L8.21942 37.1625L7.38064 36.0509L6.83855 34.1118L15.9966 33.5539L22.092 33.8382L22.933 34.1118L23.475 34.3961L23.7589 34.6741V35.2342L23.475 35.7772L23.204 36.6217L22.092 38.287L21.8082 38.8471V39.9589L22.9201 43.5697L24.0299 45.7952L24.8538 46.9069L25.6968 47.7342L26.8045 48.5701L28.1896 49.1302H30.4114L31.5083 48.5701L33.1752 47.4627L34.2829 46.3446L36.2336 44.1234L40.3953 40.5147L44.555 36.3501L45.9337 35.2342L47.3316 34.6741L48.1555 34.3961L48.9985 33.8531L49.2823 32.7372V31.6277L48.7275 30.2423L48.9985 28.0147L49.8373 26.0735L56.2186 19.6706L58.9954 16.9022L59.8234 15.7883L60.3783 14.946L60.9332 12.4512L65.0929 1.89233L65.6478 0.778453L66.4887 0.222656L67.3146 0.506981L68.9815 1.89233L69.8074 3.00614L75.6446 14.6745L76.7437 16.0748L78.6944 16.3463H80.0732L88.9623 12.7376L90.6163 13.5628L94.7888 14.403H97.0106L100.329 11.6217L100.882 13.0198L100.329 16.0748L100.882 18.0096L103.39 19.6856L103.934 21.9111L103.663 23.3072L101.441 25.5305L100.329 26.9158L99.7744 28.8591V30.7982L100.329 33.8638L100.045 34.6933L99.2195 37.2032L98.9314 38.8707V39.698L98.3786 41.3677L97.8365 44.7091V47.7599L97.5527 48.8737L97.2688 49.4317L95.0471 51.6571L95.3309 52.4802L95.8858 53.0382L97.2688 53.5941L107.253 56.9355L108.932 58.0472L110.87 59.9862L111.709 60.5421L112.804 60.8135L114.189 59.9862L115.585 58.5902L116.424 58.3187H117.247L118.645 58.5902L119.74 59.4282L120.028 59.7147V60.8285L120.3 61.3865H122.25L124.472 60.8285L125.582 59.9862L126.406 59.4282L126.965 58.3337L127.52 57.4892H128.346L128.898 57.7735L130.296 58.8895L130.838 59.9862V61.9402L130.296 63.0391L130.012 63.8835L130.296 64.4372H131.421V64.4137H131.436Z"/>
</mask>
<path d="M131.436 64.4137L136.151 61.9039H137.258L136.974 64.6852L137.258 67.4644L138.086 69.9571L139.196 72.1869L141.973 76.6337L142.816 78.0254L143.64 78.5812L144.195 79.6908L144.752 81.9184L144.466 86.9103L146.687 102.762L150.847 105.531L151.688 106.927L153.353 109.424L153.91 111.094L154.181 115.547L150.023 142.223V146.114L150.86 154.169V156.946L150.576 158.06L147.801 161.673L146.973 163.894V166.391L147.515 172.24L146.416 181.414V183.622L146.687 185.305V186.968L141.433 197.807L139.48 200.308L136.703 202.529L133.387 204.199H130.051L127.274 201.969L125.607 199.477L123.386 197.535L120.893 196.98L117.845 198.091L116.178 200.593L115.894 204.199L116.449 208.096L117.563 210.863L120.327 215.865L121.164 218.651L120.88 221.152L118.942 224.218L114.228 229.49L113.12 232.818L112.563 232.547L108.405 236.425L107.291 247.27L107.577 250.321L108.687 252.822L111.451 257.825L112.292 260.611L112.006 263.663L110.627 268.944L110.909 272.285L112.292 276.736L113.402 278.958L117.845 283.969L119.514 289.516L120.624 305.905V307.31L120.067 308.975L118.957 309.518L117.563 309.802L114.8 310.916H114.242L113.956 311.201V312.866L116.462 317.039L113.402 318.149L111.464 317.308L109.799 315.923L107.291 315.083L103.972 314.529H102.59L101.198 315.083L100.912 315.923L101.198 317.022L100.912 326.196L101.198 327.305L98.9762 328.425L97.3072 328.697L96.1974 329.802L93.7047 334.253L93.4187 336.198L93.9757 338.152L94.8144 339.824L95.1004 340.645L95.3694 341.765V342.593L95.1004 343.698V343.987L94.8144 344.258L93.7047 344.814H92.8786L92.3216 344.542L91.4829 343.698L89.8182 341.201L87.5964 340.092L85.6563 340.645L84.8176 343.715L83.4346 347.593L82.0538 348.998L80.6601 347.593L80.1031 343.715L79.006 339.553L76.7693 336.479L68.1811 328.697L59.8512 322.583L56.8013 321.749L55.4183 322.583L55.1366 324.528L55.6894 328.425L55.4077 329.802L54.8506 330.091H54.2936L54.0225 329.802L53.1859 332.592V334.529L53.4676 336.479V338.424L52.6289 340.363L51.2459 341.201H49.579L47.9143 341.765L46.5207 343.698L45.6926 344.53L44.8517 345.09L43.7568 345.643L42.9138 346.199L42.6299 344.814L42.3589 343.698L40.6771 334.529L37.6315 325.355L39.2984 323.97H41.2362L42.6299 323.125L42.9138 319.79L35.4226 274.489L35.1409 272.268L33.4718 267.813L32.9191 265.592L33.2008 257.541L32.3621 246.969L31.8071 244.748L30.4263 242.806L26.8045 239.749L25.4258 237.528L24.5977 233.361L23.204 222.79L21.5371 220.297L17.0936 218.621L14.6008 215.014L13.7749 210.296V200.864L10.4412 181.125L10.7271 175.853L11.2821 173.626L13.491 168.905L14.3319 166.408V165.008L13.7749 163.623L12.934 161.402V160.01L13.2199 157.235V156.119L12.6629 155.279L10.9982 153.893L10.4561 153.049L10.1701 152.228L10.4561 150.287L10.1701 149.171L9.33135 148.061L7.66449 146.385L7.10963 145.28L6.5547 143.339L5.72661 136.669L0.728182 120.823L0.444336 116.1L1.84018 110.266L1.55419 108.039L2.66612 105.542L1.84018 97.7663L2.66612 94.9807L3.22098 93.8711V93.0309L2.66612 92.2058L2.94997 91.3613L3.22098 90.5297L3.77591 89.1379L4.0619 88.5799L5.17384 87.7548L5.44277 87.4661L5.99769 87.1946L6.28362 86.9103H6.83855L7.10963 87.1946L7.66449 87.4661V87.7548L8.21942 88.0327L8.50541 88.3085L9.06034 88.0327L9.33135 87.4832L9.61735 86.6388V81.6319L8.77649 80.2466V74.4124L9.06034 73.8587L10.7271 69.6857L11.011 67.4644V66.9107L10.7271 66.0662L9.89904 64.4009L9.61735 63.8429L9.33135 63.0091V58.8467L10.4412 53.8399L10.7271 52.7261L10.1701 40.7862V39.6724L9.61735 38.8301L9.33135 38.0027L8.50541 37.4469L8.21942 37.1625L7.38064 36.0509L6.83855 34.1118L15.9966 33.5539L22.092 33.8382L22.933 34.1118L23.475 34.3961L23.7589 34.6741V35.2342L23.475 35.7772L23.204 36.6217L22.092 38.287L21.8082 38.8471V39.9589L22.9201 43.5697L24.0299 45.7952L24.8538 46.9069L25.6968 47.7342L26.8045 48.5701L28.1896 49.1302H30.4114L31.5083 48.5701L33.1752 47.4627L34.2829 46.3446L36.2336 44.1234L40.3953 40.5147L44.555 36.3501L45.9337 35.2342L47.3316 34.6741L48.1555 34.3961L48.9985 33.8531L49.2823 32.7372V31.6277L48.7275 30.2423L48.9985 28.0147L49.8373 26.0735L56.2186 19.6706L58.9954 16.9022L59.8234 15.7883L60.3783 14.946L60.9332 12.4512L65.0929 1.89233L65.6478 0.778453L66.4887 0.222656L67.3146 0.506981L68.9815 1.89233L69.8074 3.00614L75.6446 14.6745L76.7437 16.0748L78.6944 16.3463H80.0732L88.9623 12.7376L90.6163 13.5628L94.7888 14.403H97.0106L100.329 11.6217L100.882 13.0198L100.329 16.0748L100.882 18.0096L103.39 19.6856L103.934 21.9111L103.663 23.3072L101.441 25.5305L100.329 26.9158L99.7744 28.8591V30.7982L100.329 33.8638L100.045 34.6933L99.2195 37.2032L98.9314 38.8707V39.698L98.3786 41.3677L97.8365 44.7091V47.7599L97.5527 48.8737L97.2688 49.4317L95.0471 51.6571L95.3309 52.4802L95.8858 53.0382L97.2688 53.5941L107.253 56.9355L108.932 58.0472L110.87 59.9862L111.709 60.5421L112.804 60.8135L114.189 59.9862L115.585 58.5902L116.424 58.3187H117.247L118.645 58.5902L119.74 59.4282L120.028 59.7147V60.8285L120.3 61.3865H122.25L124.472 60.8285L125.582 59.9862L126.406 59.4282L126.965 58.3337L127.52 57.4892H128.346L128.898 57.7735L130.296 58.8895L130.838 59.9862V61.9402L130.296 63.0391L130.012 63.8835L130.296 64.4372H131.421V64.4137H131.436Z" fill="#E1E2E4" stroke="black" stroke-width="2.50498" mask="url(#path-1-inside-1_539_32922)"/>
</svg>
