<svg width="250" height="253" viewBox="0 0 250 253" fill="none" xmlns="http://www.w3.org/2000/svg">
<mask id="path-1-inside-1_539_32919" fill="white">
<path d="M247.013 42.5361L249.238 48.6452L249.525 53.0972L248.409 52.8107L246.47 50.0416L243.974 50.3131L242.86 51.4272L240.922 53.9226L239.81 55.0388L238.697 55.5947L235.645 56.1486L234.529 56.9782L233.148 58.0923L232.864 59.2063L232.304 63.0852V64.7702L231.479 66.4402L230.081 68.6533L226.473 72.5472L224.248 74.2151L222.579 76.997L222.848 79.2251L225.358 83.677L225.903 86.4461L225.631 88.3984L223.964 93.124L222.848 97.2916L222.579 102.843L223.406 108.406L224.789 112.574L225.903 113.417L227.014 113.688L228.128 113.972L228.957 114.531L229.51 115.643L228.957 116.742L227.841 117.856L227.57 118.965L228.67 128.143L230.353 129.811L235.074 131.199L236.741 132.879L237.013 135.651L235.345 138.432L231.464 143.154L225.903 148.991L223.678 150.39L218.67 152.06L217.289 153.441L216.46 156.227V159.009L218.956 173.195L219.228 176.518L218.398 179.013L217.289 179.573L214.506 180.129L213.121 180.416L212.281 181.526L200.613 198.196L200.056 198.48L198.675 199.306L198.117 199.862V200.422L199.228 201.818L198.946 202.374L197.831 202.917H195.334L194.236 203.473L192.282 205.699L188.961 210.981L186.464 212.92L184.224 213.476L179.518 214.034L177.006 214.877L172.843 217.93L171.727 219.044L167.277 218.202L165.065 217.101L158.95 212.92L157.565 211.252L156.725 209.867L157.009 208.199L159.234 200.965L160.331 198.465L161.446 194.856V190.417L161.731 188.475L162.015 187.365L161.731 185.978L161.446 185.691L160.617 186.249L150.888 194.584L149.221 195.696L143.657 198.767L141.988 200.148L139.222 204.316L137.538 205.986L134.77 207.942L129.493 210.166L119.768 211.552L114.202 212.379L112.535 212.108L111.437 211.823H111.15L110.868 211.552L110.039 210.709L109.481 209.595L108.372 209.037L106.7 208.768L103.364 209.324L101.425 209.595H99.4824L98.0846 209.037L96.4174 208.214L93.6495 205.986L92.2539 205.158L90.5824 204.316L86.4167 204.602L83.9203 204.874L77.8032 204.044L61.414 205.716L58.6311 206.54L56.964 207.382V208.214L56.6926 209.324L55.8504 211.265L55.5683 211.552V211.836H55.8504L60.0183 212.935L61.1275 213.489L61.9568 214.605L62.5147 215.717L62.7968 216.816V217.659L62.2433 219.057L51.129 230.444L47.7926 232.672L45.2962 235.454V237.393L41.4147 244.627L36.9648 250.465L36.4112 251.576L35.567 252.415L34.4683 252.137L33.0705 251.292L31.4034 248.523L30.5741 247.413L29.4648 246.571L28.0798 246.013L25.0148 245.465L23.8991 244.916L23.072 244.071L21.9606 242.961L21.6742 242.69H21.1334L19.4491 242.119L18.3505 241.845L17.5106 241.285L16.397 240.179L15.3005 239.063L16.1256 236.281V234.066L16.6813 230.444L16.397 228.22L16.1256 226.278L15.572 224.893L14.7278 222.382L13.9005 220.997L12.5027 219.615L11.122 218.773L9.7349 217.943L8.33917 217.101L7.50988 215.717L6.95415 214.321L6.11422 213.217L5.28492 212.666L4.44708 211.823V211.552L3.8892 210.709L3.0599 209.595L1.12136 207.656L0.563477 206.54L0.834951 204.874L1.95066 203.77L6.11422 200.433L11.3935 195.425L18.8934 190.417L25.0148 185.42L32.5041 175.404L35.0112 172.908L47.5062 162.619L48.6219 161.233L49.1754 160.677L48.8933 159.837L48.3355 159.009L46.1255 157.07L45.0098 154.842V153.728L46.1255 152.618L47.5062 151.786L51.1184 150.39L54.1811 148.72L54.724 148.164H56.949L59.174 148.72L60.5718 149.278L61.399 150.659L61.9568 152.06L62.2433 153.999V155.941L61.9568 157.609L61.399 159.009L60.3004 160.391L58.3469 162.619L57.7933 163.733L57.5219 164.558L57.7933 165.401L58.3469 165.959H59.4604L61.6854 165.674L65.5775 164.002L71.9682 163.177L74.4646 162.334L78.6325 160.109L80.2996 158.438L83.636 153.159L84.7347 152.047L85.2925 150.944L85.5789 150.103L84.4632 147.05L83.636 145.654L83.3539 144.826L83.0825 143.425V138.988L83.6253 137.045L84.7347 135.379L86.1218 134.276L86.9596 133.164L87.246 132.052L88.3468 124.549L88.0753 122.874L87.2311 119.823V118.711L88.0753 117.039L100.297 100.644L104.465 96.4641L107.784 94.2381L109.186 92.8525L110.011 91.1825L110.853 87.8446L111.693 80.8951L112.52 78.3976L113.907 75.9022L119.195 70.349L122.25 65.897L125.032 67.5649V69.5065L125.857 73.3897V73.6762L126.413 74.786L127.242 75.6157L128.354 76.1738H129.754L131.979 75.0576L133.646 73.6762L135.313 72.004L137.538 70.0646L138.654 68.9527L141.704 64.2271L141.988 61.7316V59.2192L142.817 57.5491L146.981 53.0972L148.096 51.1428L149.477 49.7572L150.322 49.1991L151.717 48.9296L153.656 49.1991L154.756 48.6452L156.152 47.544L157.539 46.43L158.649 45.5918L159.764 45.8783H163.641L174.211 41.4264L176.979 40.3102L186.706 33.9188L191.156 30.0335L195.606 24.1874L199.218 18.0804L200.885 16.1345L204.506 13.0703L206.446 11.1309L207.56 11.411L208.389 11.6826L211.452 13.9107L212.839 14.4688L214.778 15.0226H217.003L219.499 14.4688L221.453 13.6284L236.728 4.46154L237.013 3.90984L237.842 3.06735L238.953 1.12364L240.338 0.0117188L240.625 3.90984L242.02 5.01964L243.121 5.2912L244.517 6.13581L246.727 8.07312L247.571 10.0168L247.853 11.9691L247.571 17.2379L247.013 18.6321L246.727 19.7461L245.9 20.8473L245.346 21.6877L244.517 22.2436L243.675 22.8017L243.121 23.9008V26.3984L243.403 28.0812L244.23 29.1803L246.727 31.1368L247.571 32.5182L247.853 33.3479L246.742 37.5282L246.455 40.0236L246.742 41.6958L247.013 42.5361Z"/>
</mask>
<path d="M247.013 42.5361L249.238 48.6452L249.525 53.0972L248.409 52.8107L246.47 50.0416L243.974 50.3131L242.86 51.4272L240.922 53.9226L239.81 55.0388L238.697 55.5947L235.645 56.1486L234.529 56.9782L233.148 58.0923L232.864 59.2063L232.304 63.0852V64.7702L231.479 66.4402L230.081 68.6533L226.473 72.5472L224.248 74.2151L222.579 76.997L222.848 79.2251L225.358 83.677L225.903 86.4461L225.631 88.3984L223.964 93.124L222.848 97.2916L222.579 102.843L223.406 108.406L224.789 112.574L225.903 113.417L227.014 113.688L228.128 113.972L228.957 114.531L229.51 115.643L228.957 116.742L227.841 117.856L227.57 118.965L228.67 128.143L230.353 129.811L235.074 131.199L236.741 132.879L237.013 135.651L235.345 138.432L231.464 143.154L225.903 148.991L223.678 150.39L218.67 152.06L217.289 153.441L216.46 156.227V159.009L218.956 173.195L219.228 176.518L218.398 179.013L217.289 179.573L214.506 180.129L213.121 180.416L212.281 181.526L200.613 198.196L200.056 198.48L198.675 199.306L198.117 199.862V200.422L199.228 201.818L198.946 202.374L197.831 202.917H195.334L194.236 203.473L192.282 205.699L188.961 210.981L186.464 212.92L184.224 213.476L179.518 214.034L177.006 214.877L172.843 217.93L171.727 219.044L167.277 218.202L165.065 217.101L158.95 212.92L157.565 211.252L156.725 209.867L157.009 208.199L159.234 200.965L160.331 198.465L161.446 194.856V190.417L161.731 188.475L162.015 187.365L161.731 185.978L161.446 185.691L160.617 186.249L150.888 194.584L149.221 195.696L143.657 198.767L141.988 200.148L139.222 204.316L137.538 205.986L134.77 207.942L129.493 210.166L119.768 211.552L114.202 212.379L112.535 212.108L111.437 211.823H111.15L110.868 211.552L110.039 210.709L109.481 209.595L108.372 209.037L106.7 208.768L103.364 209.324L101.425 209.595H99.4824L98.0846 209.037L96.4174 208.214L93.6495 205.986L92.2539 205.158L90.5824 204.316L86.4167 204.602L83.9203 204.874L77.8032 204.044L61.414 205.716L58.6311 206.54L56.964 207.382V208.214L56.6926 209.324L55.8504 211.265L55.5683 211.552V211.836H55.8504L60.0183 212.935L61.1275 213.489L61.9568 214.605L62.5147 215.717L62.7968 216.816V217.659L62.2433 219.057L51.129 230.444L47.7926 232.672L45.2962 235.454V237.393L41.4147 244.627L36.9648 250.465L36.4112 251.576L35.567 252.415L34.4683 252.137L33.0705 251.292L31.4034 248.523L30.5741 247.413L29.4648 246.571L28.0798 246.013L25.0148 245.465L23.8991 244.916L23.072 244.071L21.9606 242.961L21.6742 242.69H21.1334L19.4491 242.119L18.3505 241.845L17.5106 241.285L16.397 240.179L15.3005 239.063L16.1256 236.281V234.066L16.6813 230.444L16.397 228.22L16.1256 226.278L15.572 224.893L14.7278 222.382L13.9005 220.997L12.5027 219.615L11.122 218.773L9.7349 217.943L8.33917 217.101L7.50988 215.717L6.95415 214.321L6.11422 213.217L5.28492 212.666L4.44708 211.823V211.552L3.8892 210.709L3.0599 209.595L1.12136 207.656L0.563477 206.54L0.834951 204.874L1.95066 203.77L6.11422 200.433L11.3935 195.425L18.8934 190.417L25.0148 185.42L32.5041 175.404L35.0112 172.908L47.5062 162.619L48.6219 161.233L49.1754 160.677L48.8933 159.837L48.3355 159.009L46.1255 157.07L45.0098 154.842V153.728L46.1255 152.618L47.5062 151.786L51.1184 150.39L54.1811 148.72L54.724 148.164H56.949L59.174 148.72L60.5718 149.278L61.399 150.659L61.9568 152.06L62.2433 153.999V155.941L61.9568 157.609L61.399 159.009L60.3004 160.391L58.3469 162.619L57.7933 163.733L57.5219 164.558L57.7933 165.401L58.3469 165.959H59.4604L61.6854 165.674L65.5775 164.002L71.9682 163.177L74.4646 162.334L78.6325 160.109L80.2996 158.438L83.636 153.159L84.7347 152.047L85.2925 150.944L85.5789 150.103L84.4632 147.05L83.636 145.654L83.3539 144.826L83.0825 143.425V138.988L83.6253 137.045L84.7347 135.379L86.1218 134.276L86.9596 133.164L87.246 132.052L88.3468 124.549L88.0753 122.874L87.2311 119.823V118.711L88.0753 117.039L100.297 100.644L104.465 96.4641L107.784 94.2381L109.186 92.8525L110.011 91.1825L110.853 87.8446L111.693 80.8951L112.52 78.3976L113.907 75.9022L119.195 70.349L122.25 65.897L125.032 67.5649V69.5065L125.857 73.3897V73.6762L126.413 74.786L127.242 75.6157L128.354 76.1738H129.754L131.979 75.0576L133.646 73.6762L135.313 72.004L137.538 70.0646L138.654 68.9527L141.704 64.2271L141.988 61.7316V59.2192L142.817 57.5491L146.981 53.0972L148.096 51.1428L149.477 49.7572L150.322 49.1991L151.717 48.9296L153.656 49.1991L154.756 48.6452L156.152 47.544L157.539 46.43L158.649 45.5918L159.764 45.8783H163.641L174.211 41.4264L176.979 40.3102L186.706 33.9188L191.156 30.0335L195.606 24.1874L199.218 18.0804L200.885 16.1345L204.506 13.0703L206.446 11.1309L207.56 11.411L208.389 11.6826L211.452 13.9107L212.839 14.4688L214.778 15.0226H217.003L219.499 14.4688L221.453 13.6284L236.728 4.46154L237.013 3.90984L237.842 3.06735L238.953 1.12364L240.338 0.0117188L240.625 3.90984L242.02 5.01964L243.121 5.2912L244.517 6.13581L246.727 8.07312L247.571 10.0168L247.853 11.9691L247.571 17.2379L247.013 18.6321L246.727 19.7461L245.9 20.8473L245.346 21.6877L244.517 22.2436L243.675 22.8017L243.121 23.9008V26.3984L243.403 28.0812L244.23 29.1803L246.727 31.1368L247.571 32.5182L247.853 33.3479L246.742 37.5282L246.455 40.0236L246.742 41.6958L247.013 42.5361Z" fill="#E1E2E4" stroke="black" stroke-width="2.50498" mask="url(#path-1-inside-1_539_32919)"/>
</svg>
