<svg width="157" height="221" viewBox="0 0 157 221" fill="none" xmlns="http://www.w3.org/2000/svg">
<mask id="path-1-inside-1_539_32923" fill="">
<path d="M147.637 105.891L148.477 113.67L147.366 116.163V115.608L144.871 113.946L142.648 115.32L140.982 121.706L139.041 123.659L137.103 121.166L135.993 115.892L133.212 112.008L127.667 113.946L125.715 116.163L121.553 121.99L119.058 123.936L116.279 124.768L114.056 123.659L108.781 117.561L107.115 115.068L105.447 113.128H103.509L102.668 115.068L102.397 118.116L102.668 123.387L106.286 139.211L106.004 144.745L102.952 149.464L101.286 151.404L99.3339 152.799L92.1063 155.847L89.8979 157.51L86.5617 162.224L82.6853 168.618L80.4619 175.271L81.0044 180.828L82.9565 185.255L84.8937 194.701L86.5617 198.86L87.1171 200.523L86.5617 201.908L84.6225 203.842H82.6703L81.8438 204.401V206.335L79.6055 209.393L78.781 210.507L76.5577 212.445L75.4449 213.559L74.0631 214.654L70.4557 215.213L68.5036 216.052H66.8355L66.009 215.497H64.8983L63.7856 216.052L62.675 218.274L61.8463 219.364L59.9091 220.478L59.3517 219.923V218.813L58.5102 217.142L56.8442 216.321L55.1762 216.035L53.239 215.484L51.5688 213.542L51.0156 212.161V207.989L50.4582 207.434L49.3454 207.163L49.0742 206.877L48.2348 203.27L45.4562 193.29L44.6275 191.606L43.7881 187.451H43.5168L41.5797 185.513V183.308L40.7382 182.19L40.1807 183.033V183.308L39.3413 181.37L37.4042 178.59L34.9096 176.656H31.8575L30.4628 178.878L29.9054 181.919V188.036L32.1287 199.686L31.8575 204.13L27.4108 203.016L24.3459 198.86L22.68 193.299L19.6279 171.115L19.0747 169.73L18.246 168.618L17.962 167.509L19.0747 166.126L20.1704 165.012L20.7278 163.908L20.4566 163.078L18.7885 162.521L17.1077 161.411L15.7237 158.634L14.0577 152.812L13.5003 149.205L12.945 148.369L12.1184 146.984L9.89508 145.592L8.7823 144.762L7.68452 142.269L6.57389 137.826L5.46115 135.333L1.84095 128.399L1.29846 126.177L1.5697 122.845L3.23778 122.559L5.19202 122.845L6.28769 120.624L5.46115 118.402L3.23778 117.572L1.29846 116.458L0.743164 113.687L1.84095 110.909L4.06432 110.08H6.57389L8.7823 108.687L10.1791 106.463L12.6737 98.9846L13.229 96.479L12.6737 94.8142L11.2919 91.4955L11.0057 89.5427L11.5631 87.607L16.0099 80.1158L17.3917 78.1758L19.0598 76.7949L21.5672 75.683L23.2225 75.954L24.6171 76.5132L26.0012 76.7949L27.6692 75.683L29.0639 70.1425V64.8752L30.7319 61.2555L36.0052 60.9845L45.9986 62.9223L50.7166 63.2062L56.274 62.6534L59.3239 61.8104L60.992 60.6985L62.3888 58.7627L63.4866 55.7171L64.8834 47.1119L65.4387 45.4472L66.8227 45.9893L69.0461 51.5404L70.1567 53.4826L72.6513 54.8741L75.1459 55.4333L77.3693 54.5903L78.7533 52.3707V49.8587L77.9246 47.0884L77.6405 44.5956L78.7533 42.6556L87.0765 44.5956H88.4733L88.7445 45.4344L89.0286 48.4821L89.3127 49.8587L93.4753 53.7537L95.9699 54.3022L97.638 53.1966L98.4774 50.9728L101.243 39.0402L101.529 36.2743L100.145 31.0049L100.701 28.5014L103.467 27.6733L104.579 28.5014L107.642 30.4521L110.137 31.5619L109.853 29.609L107.074 24.8967V23.2148L117.907 24.0579L121.783 23.7741L125.119 22.3847L127.614 19.0553L128.169 15.1688L127.343 6.85165L128.169 4.07287L129.551 2.68992L131.775 1.57584L133.171 0.199219L134.284 0.74346L142.607 6.01933L143.434 6.85165L143.991 7.67973L144.275 9.07127V14.616L144.831 16.0075L147.325 20.4532L147.609 21.8361V24.3289L147.325 26.5507L146.77 28.4886L142.323 38.4832L142.879 39.8641L143.72 40.976L152.599 42.3611L153.156 44.3076L153.983 45.4067L154.267 45.6905L155.108 46.2454L155.379 47.0884L155.935 47.9123V49.0242L156.49 60.961L156.206 62.0558L155.108 67.0542V71.2096L155.379 72.0527L155.663 72.6118L156.49 74.2744L156.774 75.1046V75.6574L156.49 77.8748L154.822 82.0409L154.551 82.5936V88.418L155.379 89.8009V94.7993L155.108 95.6423L154.822 96.1909L154.267 96.4662L153.983 96.1909L153.44 95.9134V95.6253L152.885 95.3543L152.599 95.0704H152.043L151.759 95.3543L151.217 95.6253L150.933 95.9134L149.82 96.7372L149.549 97.2943L148.993 98.6837L148.709 99.5138L148.438 100.357L148.981 101.181V102.019L148.438 103.127L147.637 105.891Z"/>
</mask>
<path d="M147.637 105.891L148.477 113.67L147.366 116.163V115.608L144.871 113.946L142.648 115.32L140.982 121.706L139.041 123.659L137.103 121.166L135.993 115.892L133.212 112.008L127.667 113.946L125.715 116.163L121.553 121.99L119.058 123.936L116.279 124.768L114.056 123.659L108.781 117.561L107.115 115.068L105.447 113.128H103.509L102.668 115.068L102.397 118.116L102.668 123.387L106.286 139.211L106.004 144.745L102.952 149.464L101.286 151.404L99.3339 152.799L92.1063 155.847L89.8979 157.51L86.5617 162.224L82.6853 168.618L80.4619 175.271L81.0044 180.828L82.9565 185.255L84.8937 194.701L86.5617 198.86L87.1171 200.523L86.5617 201.908L84.6225 203.842H82.6703L81.8438 204.401V206.335L79.6055 209.393L78.781 210.507L76.5577 212.445L75.4449 213.559L74.0631 214.654L70.4557 215.213L68.5036 216.052H66.8355L66.009 215.497H64.8983L63.7856 216.052L62.675 218.274L61.8463 219.364L59.9091 220.478L59.3517 219.923V218.813L58.5102 217.142L56.8442 216.321L55.1762 216.035L53.239 215.484L51.5688 213.542L51.0156 212.161V207.989L50.4582 207.434L49.3454 207.163L49.0742 206.877L48.2348 203.27L45.4562 193.29L44.6275 191.606L43.7881 187.451H43.5168L41.5797 185.513V183.308L40.7382 182.19L40.1807 183.033V183.308L39.3413 181.37L37.4042 178.59L34.9096 176.656H31.8575L30.4628 178.878L29.9054 181.919V188.036L32.1287 199.686L31.8575 204.13L27.4108 203.016L24.3459 198.86L22.68 193.299L19.6279 171.115L19.0747 169.73L18.246 168.618L17.962 167.509L19.0747 166.126L20.1704 165.012L20.7278 163.908L20.4566 163.078L18.7885 162.521L17.1077 161.411L15.7237 158.634L14.0577 152.812L13.5003 149.205L12.945 148.369L12.1184 146.984L9.89508 145.592L8.7823 144.762L7.68452 142.269L6.57389 137.826L5.46115 135.333L1.84095 128.399L1.29846 126.177L1.5697 122.845L3.23778 122.559L5.19202 122.845L6.28769 120.624L5.46115 118.402L3.23778 117.572L1.29846 116.458L0.743164 113.687L1.84095 110.909L4.06432 110.08H6.57389L8.7823 108.687L10.1791 106.463L12.6737 98.9846L13.229 96.479L12.6737 94.8142L11.2919 91.4955L11.0057 89.5427L11.5631 87.607L16.0099 80.1158L17.3917 78.1758L19.0598 76.7949L21.5672 75.683L23.2225 75.954L24.6171 76.5132L26.0012 76.7949L27.6692 75.683L29.0639 70.1425V64.8752L30.7319 61.2555L36.0052 60.9845L45.9986 62.9223L50.7166 63.2062L56.274 62.6534L59.3239 61.8104L60.992 60.6985L62.3888 58.7627L63.4866 55.7171L64.8834 47.1119L65.4387 45.4472L66.8227 45.9893L69.0461 51.5404L70.1567 53.4826L72.6513 54.8741L75.1459 55.4333L77.3693 54.5903L78.7533 52.3707V49.8587L77.9246 47.0884L77.6405 44.5956L78.7533 42.6556L87.0765 44.5956H88.4733L88.7445 45.4344L89.0286 48.4821L89.3127 49.8587L93.4753 53.7537L95.9699 54.3022L97.638 53.1966L98.4774 50.9728L101.243 39.0402L101.529 36.2743L100.145 31.0049L100.701 28.5014L103.467 27.6733L104.579 28.5014L107.642 30.4521L110.137 31.5619L109.853 29.609L107.074 24.8967V23.2148L117.907 24.0579L121.783 23.7741L125.119 22.3847L127.614 19.0553L128.169 15.1688L127.343 6.85165L128.169 4.07287L129.551 2.68992L131.775 1.57584L133.171 0.199219L134.284 0.74346L142.607 6.01933L143.434 6.85165L143.991 7.67973L144.275 9.07127V14.616L144.831 16.0075L147.325 20.4532L147.609 21.8361V24.3289L147.325 26.5507L146.77 28.4886L142.323 38.4832L142.879 39.8641L143.72 40.976L152.599 42.3611L153.156 44.3076L153.983 45.4067L154.267 45.6905L155.108 46.2454L155.379 47.0884L155.935 47.9123V49.0242L156.49 60.961L156.206 62.0558L155.108 67.0542V71.2096L155.379 72.0527L155.663 72.6118L156.49 74.2744L156.774 75.1046V75.6574L156.49 77.8748L154.822 82.0409L154.551 82.5936V88.418L155.379 89.8009V94.7993L155.108 95.6423L154.822 96.1909L154.267 96.4662L153.983 96.1909L153.44 95.9134V95.6253L152.885 95.3543L152.599 95.0704H152.043L151.759 95.3543L151.217 95.6253L150.933 95.9134L149.82 96.7372L149.549 97.2943L148.993 98.6837L148.709 99.5138L148.438 100.357L148.981 101.181V102.019L148.438 103.127L147.637 105.891Z" fill="#E1E2E4" stroke="black" stroke-width="2.50498" mask="url(#path-1-inside-1_539_32923)"/>
</svg>
